<?xml version="1.0" encoding="UTF-8"?>
<svg id="Layer_2" data-name="Layer 2" xmlns="http://www.w3.org/2000/svg" xmlns:xlink="http://www.w3.org/1999/xlink" viewBox="0 0 110.78 97.92">
  <defs>
    <style>
      .cls-1 {
        fill: url(#linear-gradient);
      }
    </style>
    <linearGradient id="linear-gradient" x1="0" y1="48.96" x2="110.78" y2="48.96" gradientUnits="userSpaceOnUse">
      <stop offset="0" stop-color="#fffeba"/>
      <stop offset="0" stop-color="#fad483"/>
      <stop offset=".23" stop-color="#efcb80"/>
      <stop offset=".41" stop-color="#ffeca8"/>
      <stop offset=".59" stop-color="#ffeca7"/>
      <stop offset=".77" stop-color="#ffffc9"/>
      <stop offset="1" stop-color="#ffedab"/>
    </linearGradient>
  </defs>
  <g id="Layer_1-2" data-name="Layer 1">
    <path class="cls-1" d="M93.63,97.36c-1.87-.16-3.67-.87-5.26-1.84-2.41-1.46-4.42-3.71-6.46-5.63-4.8,4.01-10.62,6.78-16.87,7.63-15.96,2.17-31.37-4.56-37.54-19.91-.95-2.37-1.19-4.48-2.88-6.52-.34-.41-2.35-2.5-2.67-2.69-.8-.46-2.34.24-3.3.37-10.99,1.48-16.4-7.48-18.66-16.83,9.93-1.4,21.53,1.54,22.61,13.21l-5.55-3.74c-1.21-.58-2.4-1.23-3.65-1.72-.81-.32-1.82-.7-2.68-.77,3.5,1.83,6.79,3.94,9.87,6.43,1.26,1.02,2.5,2.4,3.74,3.35.19.15.24.37.58.29-.36-3.09-.74-6.18-.58-9.3.08-1.7.63-3.7.59-5.35-.03-1.32-1.16-6.09-1.81-7.21-.47-.81-1.6-.84-2.46-1.19-2.49-1.01-4.82-2.06-6.86-3.88-7.32-6.56-6.27-18.93-3.06-27.32,6.06,2.74,12.87,7.69,15.75,13.86,2.4,5.15,1.93,10.57-.42,15.65-.26-.02-.3-.28-.39-.47-2.42-5.28-3.59-9.1-7.65-13.62-.07-.08-.47-.59-.58-.38,2.31,3.69,4.2,7.62,5.76,11.69.89,2.32,1.57,5.46,2.58,7.57.11.22.19.53.48.58,5.06-16.2,21.67-29.03,39.1-26.45l-6.56.82-4.17,1.11c-.37.51,3.75,8.19,4.52,9.17,4.38-2.46,8.45-5.96,9.9-10.96,2.12-7.27.12-15.78-8.97-15.11-7.43.55-8.55,8.3-6.8,14.19-3.43.57-6.72,1.94-9.78,3.54-.39.21-2.26,1.47-2.49,1.25-2.03-9.3-.25-19.7,8.81-24.44,11.68-6.11,29.89-2.18,31.99,12.68,1.82,12.88-8.07,20.53-17.82,26.45-.05.36,2.95,4.69,3.42,5.39,5.08,7.48,10.55,14.72,16.12,21.83.53,1-.74,3.06-1.28,4.03-1.32,2.36-3.39,4.89-5.5,6.57-.38.3-2.05,1.63-2.39,1.46-.39-.2-1.88-2.03-2.3-2.51-5.62-6.53-11.22-14.17-16.07-21.31-1.37-2.02-2.73-4.72-4.17-6.56-.13-.17-.28-.43-.54-.38-12.38,11.14-8.11,35.55,10.32,36.8,11.35.77,20.34-5.81,24.26-16.2,1.55-4.12,4.11-14.49-1.21-16.62-1.51-.6-3.15-.39-4.54-1.02v-5.85h24.92v6.13c-3.77.41-6.17.58-7.42,4.56-1.14,3.61-1.55,7.74-2.69,11.5-.89,2.95-2.18,5.71-3.32,8.57,4.9,5.9,11.06,11.94,19.17,12.56v6.52h-17.15ZM47.91,28.17c-13.44,6.47-21.57,22.46-18.97,37.18l.86-3.64c2.46-8.8,9.31-14.91,16.69-19.74l-3.74-8.74c1.22-2.14,3.43-3.41,5.17-5.07Z"/>
  </g>
</svg>