<?xml version="1.0" encoding="UTF-8"?>
<svg id="Layer_2" data-name="Layer 2" xmlns="http://www.w3.org/2000/svg" xmlns:xlink="http://www.w3.org/1999/xlink" viewBox="0 0 148.19 185.18">
  <defs>
    <style>
      .cls-1 {
        fill: url(#linear-gradient-2);
      }

      .cls-2 {
        fill: url(#linear-gradient-4);
      }

      .cls-3 {
        fill: url(#linear-gradient-3);
      }

      .cls-4 {
        fill: url(#linear-gradient-5);
      }

      .cls-5 {
        fill: url(#linear-gradient-8);
      }

      .cls-6 {
        fill: url(#linear-gradient-7);
      }

      .cls-7 {
        fill: url(#linear-gradient-6);
      }

      .cls-8 {
        fill: url(#linear-gradient);
      }
    </style>
    <linearGradient id="linear-gradient" x1="20.96" y1="25.18" x2="127.09" y2="25.18" gradientUnits="userSpaceOnUse">
      <stop offset="0" stop-color="#fffeba"/>
      <stop offset="0" stop-color="#fad483"/>
      <stop offset=".23" stop-color="#efcb80"/>
      <stop offset=".41" stop-color="#ffeca8"/>
      <stop offset=".59" stop-color="#ffeca7"/>
      <stop offset=".77" stop-color="#ffffc9"/>
      <stop offset="1" stop-color="#ffedab"/>
    </linearGradient>
    <linearGradient id="linear-gradient-2" x1="18.87" y1="160.72" x2="129.29" y2="160.72" xlink:href="#linear-gradient"/>
    <linearGradient id="linear-gradient-3" x1="107.72" y1="57.94" x2="136.39" y2="57.94" xlink:href="#linear-gradient"/>
    <linearGradient id="linear-gradient-4" x1="11.75" y1="57.99" x2="40.64" y2="57.99" xlink:href="#linear-gradient"/>
    <linearGradient id="linear-gradient-5" x1="125.31" y1="92.57" x2="148.19" y2="92.57" xlink:href="#linear-gradient"/>
    <linearGradient id="linear-gradient-6" x1="0" y1="92.57" x2="23.05" y2="92.57" xlink:href="#linear-gradient"/>
    <linearGradient id="linear-gradient-7" x1="113.08" y1="131.32" x2="135.76" y2="131.32" xlink:href="#linear-gradient"/>
    <linearGradient id="linear-gradient-8" x1="12.34" y1="131.26" x2="34.98" y2="131.26" xlink:href="#linear-gradient"/>
  </defs>
  <g id="Layer_1-2" data-name="Layer 1">
    <g>
      <path class="cls-8" d="M26.18,28.01c2.43.33,4.72,2.16,5.81,4.33l-.59.44c1.09.02,1.36.76,1.85,1.58l.53,2.3c1.18-2.04,2.38-5.92.62-7.92-.86-.97-2.31-.61-2.64-3.04-.6-4.38,5.48-3.93,4.64,1.21-.4,2.46.02,2.16.07,4.24.01.68-.47,1.47-.29,2.23,4.61-4.86,4.58-11.86,4.76-18.19l-1.18,6.12.29,2.83c-2.03-1.74-2.44-4.36-1.63-6.85.89-2.73,1.47-2.93,1.78-6.24.03-.33,0-.57.44-.63.33,2.77,2.18,4.66,2.11,7.61-.05,1.97-1.61,7.89-2.25,9.99-.36,1.19-1.05,2.11-1.34,3.28,3.16-2.09,5.69-4.48,7.5-7.85,2.25-4.18,2.77-9.27,3.52-13.92l-1.7,5.01-.39,3.94c-4.5-4.93,1.94-8.96,1.79-14.01.98-.25.51,1.13.67,1.86.25,1.13.89,2.43,1.04,3.43.72,4.58-2.41,8.58-3.36,12.89l-2.53,4.48c2.81-1.51,8.13-3.82,7.46-7.89-.16-.96-1.37-1.31-1.18-3.26.34-3.56,5.13-3.58,4.74.52-.19,2-1.58,1.96-2.09,2.78-.72,1.17-.74,3.73-2.37,4.86,2.78-1.1,11.93-3.59,12.25-7,.18-2-1.7-3.07-3.16-1.65l-.12,1.02.87,1.07c-2.35-.02-1.64-2.74-.07-3.51,1.54-.76,3.12.22,3.34,1.9.2,1.52-1.1,4.11,1.79.56,2.75-3.38,4.01-9.02,1.02-12.64-2.1-2.55-5.88-3.28-8.62-1.22-3.23,2.43-1.68,7.94,2.53,5.96-.72,2.38-3.63,1.41-4.59-.32-2.78-5,4.72-10.29,9.95-7.56,5.6,2.92,4.68,10.52,1.64,15.02-3.21,4.75-8.09,5.94-12.8,8.36-.28.14-.71.15-.74.6,8.24-.15,4.64,15.93,13.71,12.08-1.02-.85-1.73-1.84-1.19-3.2,2.4-1.6,3.24.54,2.39,2.75,2.84-.44,2.53-1.92,2.68-4.17h-.9s.3-1.19.3-1.19c-2.97.51-4.07-4.05-7.01-1.79-.34-.74.55-1.9,1.19-2.39,2.14-1.63,4.45-.49,6.11,1.19-.76-2.18-2.07-3.95-1.79-6.42.24-2.09,2.52-4.01,2.99-6.1l2.79,4.81c1.58,3.39-1.54,6.31-2.19,9.5.57-.28.64-1.21,1.06-1.77,2.24-2.97,5.73-2.59,7.28.73-.95.22-1.75-.38-2.76-.09-1.16.33-2.6,3.04-4.69,2.32l.59.74-1.19.45.61,1.34-.58.55c.37,1.03,1.13,1.96,2.22,2.27.89.26.18-1.23.19-1.64.08-2.92,3.67-1.97,2.8.77-.23.71-1.1.99-1.06,1.77,9.39,2.28,5.05-12.37,13.71-12.52-.03-.44-.46-.45-.74-.6-7.34-3.77-16.02-6.36-15.37-16.86s16.32-8.4,14.19.48c-.55,2.31-4.74,3.52-4.64.58,3.55,2.48,5.28-2.14,3.08-4.99-2.55-3.31-8.21-1.93-10.06,1.44-2.58,4.7-.1,10.68,3.85,13.69.23-.75-.45-1.42-.35-2.28.34-3.13,4.23-2.95,4.85-.4.29,1.21-.44,2-1.66,1.78,2.89-2.9-2.28-3.9-2.35-.75-.08,3.54,9.71,6.4,12.49,7.31-.75-.7-1.33-1.29-1.75-2.27-.33-.76-.61-2.62-.69-2.74-.1-.14-.79-.22-1.12-.51-1.32-1.17-1.52-4.81.49-5.14,2.69-.45,3.7,2.19,2.94,4.43-.25.73-1.05.84-1.08,1.07-.08.51.54,2.71.85,3.29,1.15,2.12,4.41,3.79,6.62,4.56-.68-1.25-1.55-2.36-2.14-3.67-1.1-2.44-3.89-9.82-3.8-12.23l1.76-6.45c.16,5.05,4.66,6.86,3.14,12.23-.11.37-.65,1.59-1.05,1.78-.11-2.71-.96-5.36-1.78-7.91-.13-.39,0-.93-.6-1.03,1.27,6.49,1.74,12.54,6.27,17.73l4.76,3.73c.1-.1-.98-2.19-1.11-2.61-.92-2.96-2.62-9.8-2.1-12.67.3-1.62,2.06-3.39,1.72-5.29.75-1,.61,2.46.67,2.76.37,2.03,1.86,3.63,2.03,5.72.16,1.97-.35,3.82-1.8,5.23l.16-2.39-1.35-6.85.68,9.61c.53,3.36,2.14,6.32,4.09,9.03.53.36.26-.28.22-.52-.36-2.22.36-3.62.24-4.85-.06-.59-.8-1.11-.74-2.34.25-4.98,6.9-3.4,4.28,1.27-.82,1.46-2.48,1.02-2.79,3.18-.33,2.32.25,4.04,1.18,6.09l1.18-2.84,1.5-.74-.58-.72c.66-1.23,1.61-2.45,2.89-3.08.31-.15,2.75-.97,2.91-.97h4.92c-2.18,1.81-4.26,4.8-7.08,5.59-1.43.4-3.7-.29-4.32,1.04-1.61,3.47,4.41,7.46,2.18,12.91-1.97,4.81-8.53,2.61-7.03-1.97.83-2.53,4.51-.32,2.7.32l-.63-.88c-2.84.25-1.71,3.8.71,4.11,3.18.41,4.39-3.64,3.8-6.21-.51-2.22-4.15-7.16-6.33-7.98-6.4-2.41-7.47,2.07-7.53,7.39l1.27-5.73.66-1.12c2.71,4.48-1.12,9.71-4.62,12.52,1.05-3.9-1.13-7.69,1-11.37,1.78-3.08,5.36-3.33,8.54-3.09-1.97-2.22-7.54-4.27-9.86-1.81-.95,1.01-.38,2.07-2.24,2.82-4.84,1.94-5.24-4.49-.57-4.47.75,0,1.46.33,2.06.31,1.61-.07,3.54-1.47,5.53-.58l-4.07-2.34c-2.71-1.09-6.6-2.88-9.33-1.07s.18,2.82.8,4.83c.65,2.12-.46,4.74.37,6.93-4.04-2.91-4.89-6.87-2.68-11.33-.68.05-1.58,1.31-1.9,1.82-2.44,3.88-1.82,10.55-8.36,9.49-.74-.12-1.21-.63-1.88-.81-1.77-.46-3.47.06-4.1-2.46-1.09,2.65-2.39,1.92-4.4,2.46-.43.11-.78.64-1.32.76-7.62,1.77-6.17-7.68-10.07-10.97-.34-.28-.48-.72-1.04-.59.47,1.88,1.7,3.8,1.42,5.74-.33,2.27-2.21,4.36-3.81,5.89v-6.41c0-1.76,3.77-3.53,1.11-5.29-3.49-2.31-9.9,1.22-13.03,3.2.67.35,1.42-.17,2.19-.14.99.05,2.39.84,3.35.86,1.52.03,1.93-1.1,3.91.25,2.84,1.94.5,5.67-2.88,3.77-1.58-.89-1.01-2.57-3.14-3.42-2.74-1.09-6.88.31-8.51,2.69,3.66-1.05,8.81,1.14,9.24,5.22.33,3.05-.53,6.08,0,9.1-3.46-2.99-6.99-7.82-4.62-12.52l.84,1.55,1.1,4.71c.25-5.2-1.47-9.03-7.32-6.87-2.76,1.02-6.93,7.19-6.63,10.22.23,2.34,2.12,4.68,4.65,3.92,2.87-.87,1.85-5.77-.84-3.09l.28-1.36c4.68-.79,3.28,5.96-.7,5.81-3.43-.13-4.5-4.45-3.98-7.22.45-2.39,4-6.17,2.45-8.55-.84-1.28-1.49-.54-2.33-.65-4.59-.62-5.68-3.4-9.13-5.93,1.64.16,3.62-.21,5.22,0ZM53.67,15.84c-1.63.48-.55,3.24.77,2.9,1.64-.42,1.52-3.58-.77-2.9ZM95.12,16.16c-1.28-1.27-3.56.39-2.15,2,1.54,1.75,3.22-.94,2.15-2ZM73.73,27.71c.61-.1.37-.47.43-.78.4-2.12.48-4.51.46-6.67l-.85,4.36-.03,3.09ZM35.5,25.4c-1.57-1.56-3.7,1.51-1.71,2.47,1.66.81,2.74-1.45,1.71-2.47ZM114.8,27.64c1.18-1.19-.2-3.7-2-2.15-1.69,1.46.79,3.37,2,2.15ZM30.21,32.18c-1.18-1.18-2.86-2.22-4.47-2.68,1.22,1.07,2.85,2.47,4.47,2.68ZM122.02,29.8l-1.23.41-3.54,2.27c1.75-.25,3.52-1.48,4.77-2.68ZM49.5,30.75c-1.17.35-1.16,2.39.25,2.63,2.74.47,2.04-3.31-.25-2.63ZM99.29,33.01c2.04-2.03-2.9-3.73-2.62-.68.11,1.2,1.93,1.37,2.62.68ZM68.69,33.71c-.4,3.88,3.03,2.14.72-.25l-.72.25ZM78.2,36.06c1.17.41,1.98-1.73,1.21-2.25l-1.21-.13v2.39Z"/>
      <path class="cls-1" d="M33.95,147.75c-.39.69-.94,1.73-1.4,2.32-.36.46-.94.57-1.15,1.09,1.94.36,5.88-1.16,6.7-2.98.6-1.35-.49-2.34,1.19-3.88,2.71-2.51,5.9.56,3.3,3.31-1.29,1.37-2.38.81-3.45,1.32-.36.18-.46.79-.81,1.05-1.04.77-2.3,1.54-3.65,1.49l2.24.59c5.77.69,10.28-2.31,15.35-4.32.62-.61.17-.51-.34-.34-2.35.79-4.75,1.44-6.82,2.87,1.63-6.17,7.96-3.16,11.77-6.26.95.62-.59,1.08-1.06,1.62-1.24,1.42-2.02,3.29-3.9,4.15l-13.38,3.76c5.26.75,11.63,9.5,17.09,6.22.94-.57.29-2.11,2.64-2.73,4.88-1.28,4.52,5.05-.21,4.58-.74-.07-1.25-.56-1.8-.6-.81-.06-1.8.58-2.68.6-.83.02-1.74-.58-2.52-.16,2.53,1.79,7.56,7.72,11.02,6.26,2.84-1.2.18-5.24-1.04-3.13-.23.39.07,1.49-.59,1.19-1.4-.64.59-3.54,3.11-1.92,1.8,1.16.79,4.05-1.1,4.53-.73.19-1.52-.09-2.16.22,3.65,2.68,8.13,2.78,12.22,1.04-3.99-3.5-4.27-9.39.3-12.52-2.31-1.08-5.82.97-5,3.66.29.97,1.53.74,1.43,1.7-3.77-.2-2.76-5,.14-5.98,1.97-.66,2.89.03,4.5.03,2.27,0,4.96-1.15,6.7,1.33,1.23,1.76.91,5.39-1.79,4.33.29,2.87-1.03,5.32-2.98,7.31,3.99,2.32,8.41,1.38,12.21-.75l-2.39-.44c-2.85-.8-2.62-4.93.45-4.95,1.18,0,2.74,1.2,1.49,2.4-.74-4.05-4.68.1-1.75,1.76,3.31,1.88,8.82-4.04,11.14-6.08-.67-.35-1.46.18-2.22.16-.92-.02-2.14-.66-2.98-.59-.57.04-1.06.55-1.8.61-4.44.36-4.7-5.56-.37-4.73,2.45.47,1.99,3.12,4.87,3.49,4.15.53,7.1-2.83,10.41-4.75,1.59-.92,3.42-1.45,4.92-2.53-2.47.37-4.52-.76-6.72-1.32-2.21-.57-4.41-.79-6.51-1.84-2.65-1.33-3.53-3.61-5.55-5.63.96.16,1.7.79,2.67,1.05,1.92.52,4.16.17,5.94.91s2.92,2.32,3.61,3.99c-1.4-.65-2.73-1.37-4.19-1.92-.85-.32-1.8-.63-2.66-.91-.29-.1-.96-.41-.9.15,5.48,2.21,9.45,4.89,15.66,4.49.52-.03,1.95-.11,2.22-.61-1.92.36-3.45-2.08-4.48-2.53-.78-.34-1.62-.06-2.6-.68-2.29-1.46-2.38-5.4,1.19-4.77,2.53.45,1.95,2.83,2.47,4.39.69,2.08,4.62,3.55,6.7,3.29-1.08-.87-1.34-1.98-1.96-2.95-.26-.42-.72-.68-.97-1.12-2.1-3.74-.59-7.54,1.59-10.83.22,2.49,1.91,5.14,1.94,7.62.01.89-.39,2.04-.66,2.91-.36,1.15-1.35,1.12-.37,2.58,1.41,2.12,4.41,1.06,6.51,1.24,2.16.19,4.43,1.13,5.68,2.96,2.65,3.87-1.21,7.8-4.45,5.65-1.65-1.1-1.56-3.86.74-3.58v.89c-2.08-.22-1.33,2.4.74,2.42,4.34.02,3.37-6.87-2.08-7.49-3.77-.43-8.56.16-10.53,3.79-2.36,4.36.62,5.26,3.67,7.54.65.07.53-.09.15-.45s-4.82-3.17-4.18-3.72c5.36-.4,7.84,5.31,9.24,9.54-1.31-.59-2.5-1.39-3.81-2-1.09-.5-2.38-.74-3.44-1.33-4.78-2.65-4.52-8.17-1.1-11.87-3.37.35-8.05,4.19-7.46,7.88.18,1.13,1.73,1.16,1.51,3.59-.33,3.64-5.02,3.53-4.49-.9.23-1.9,1.45-1.79,1.73-2.29.16-.29.08-1.57.27-2.27.3-1.13,1.09-2.01,1.58-3.03-.15-.14-2.79,1.54-3.14,1.78-3.97,2.73-7.93,6.55-5.56,11.84,1.21,2.71,2.79,1.36,4.18,2.97,2.92,3.38-1.7,6.1-3.68,3.08-1.18-1.8-.14-2.59-.29-3.29s-1.37-1.87-1.59-3.18c-.19-1.11-.02-2.25-.07-3.36-.37-.51-1.9,3.95-2,4.41-.69,3.02-1.02,6.82-1.27,9.9l1.7-6.79.09-1.86c4.27,4.73-1.57,8.81-1.5,13.71-.39.09-.36-.31-.44-.59-1.3-4.26-2.1-5.63-.89-10.14.84-3.14,2.29-6.37,3.13-9.54-1.31.9-2.48,2.01-3.78,2.93-1.11.78-4.14,2.16-4.43,3.31l.06.55c2.25,1.82,1.52,5,2.18,7.53-1.74-.6-3.54-3.46-3.58-5.21-.04-1.49.93-1.69.9-1.79-.47-1.4-1.94,1.78-2.02,2.15-.12.62-.18,2.03-.09,2.63.12.76,1.97,1.28,1.5,3.85-.74,4.04-6.58,1.62-4.29-2.5.54-.97,1.82-.67,1.32-2.41-1.63,1.88-5.44,1.79-5.06-1.31.25-2.04,3.35-2.94,3.57-.48-.87.08-.81-.96-1.8-.78-1.26.23-.95,2.28-.07,2.87,3.54.76,3.75-3.26,5.75-5.07-2.96.84-5.32,1.15-8.36.45-.79-.18-2.29-1.03-2.82-1.03-.43,0-2.29.85-3.12,1.03-2.93.63-5.21.41-8.06-.45,1.31,1.15,1.78,4.2,3.36,4.84,3.09,1.26,4.06-2.09,2.04-2.62-.86-.22-1.06,1.29-1.52.76-.2-.23.11-.97.42-1.22,1.4-1.1,4.04,1.47,2.7,3.3-1.24,1.69-3.41.72-4.91.01-.51.53,3.4,3,1.2,5.82-2.07,2.66-4.64-.57-3.75-3.45.25-.79,1.19-1.1,1.35-1.93.46-2.37-1.21-4.57-2.83-6.1l-8.19-5.67,3.87,12.08c.27,2.86-.8,4.79-1.48,7.47-.13.5.3.87-.6.72.2-5.15-5.75-9.03-1.2-14.01l.09,3.05,1.7,6.19c-.37-2.98-.68-6.39-1.27-9.31-.09-.46-1.59-5.58-2-5,.16,1.59-.24,3-.75,4.47-.2.58-.91,1.36-.96,1.68-.18,1.19.7,1.68-.55,3.37-1.99,2.69-5.67.86-3.97-2.48,1.1-2.16,3.85-1.02,4.94-4,2.24-6.13-4.27-10.64-8.85-13.18.18.85.8,1.44,1.12,2.3s.41,2.12.74,2.85c.48,1.05,1.71.71,1.72,3.06.04,4.79-6.53,3.04-4.24-1.87.25-.54.83-.79.95-1.44.73-3.76-3.81-7.38-7.15-7.89-.2.19,1.53,2.36,1.75,2.86,1.42,3.29.43,6.74-2.55,8.71-2.15,1.42-5.48,1.64-7.11,3.63-.64.11-.47-.23-.39-.69.67-3.72,5.03-10.19,9.48-8.56.5-2.41-1.94-6-4.1-6.78-2.13-.77-7.19-1.06-9.21-.13-4.11,1.89-3.41,7.76.58,6.84,1.66-.38,1.91-3.03-.08-2.32.15-1.73,1.94-.57,2.09.46.4,2.8-4.51,3.9-5.98,1.19-2.16-3.99,1.99-7.1,5.6-7.55,2.24-.28,3.65.64,5.85-.41,2.82-1.35.55-2.9.25-4.66-.64-3.7,1.43-5.85,1.42-9.32,2.24,2.27,3.58,6.43,2.53,9.54-.25.76-.8,1.3-1.18,1.96ZM33.48,147.58l.3-6.86-.9,4.34.6,2.52ZM115.16,146.68c.1-1.81-.05-3.6-.44-5.36-.69.88-.24,3.1-.07,4.24.05.3.09,1.19.51,1.12ZM40.24,145.26c-1.72.16-2.01,2.94-.05,2.94,1.95,0,1.77-3.11.05-2.94ZM109.16,147.83c.87-1.38-.88-3.46-2.26-2.27-1.69,1.47,1.39,3.66,2.26,2.27ZM79.92,161.52c.39-.4.44-1.58.36-2.14-.3-2.08-3.31-3.07-5.06-2.25l2.33,2.28.94,2.49c.42,0,1.12-.07,1.42-.37ZM73.92,157.74c-3.57,2.61-3.38,8.29.22,10.69,3.45-2.43,3.78-8.6-.22-10.69ZM59.36,160.34c.86-1.51-1.73-3.36-2.71-1.35s2.05,2.5,2.71,1.35ZM90.02,158.08c-1.89.17-1.59,3.22.53,2.93,1.82-.26,1.13-3.07-.53-2.93ZM35.27,159.81c-.83.28-1.77,1.01-2.48,1.54s-1.55,1.02-1.99,1.73c1.61-.74,3.43-1.83,4.47-3.27ZM42.64,161.64c-2.4.66-.25,4.41,1.42,2.33.89-1.11-.17-2.67-1.42-2.33ZM104.95,161.64c-1.53.42-1.62,3.24.51,2.95,1.72-.24,1.38-3.46-.51-2.95ZM47.54,172.08c-.57.35-.69,3.32,1.16,2.82,2.44-.66.63-3.92-1.16-2.82ZM98.96,172.07c-.98.35-.76,2.27.32,2.6,2.63.81,2.48-3.59-.32-2.6ZM83.46,177.45c-1.33.25-1.98,3.71.79,2.87,1.66-.5.54-3.12-.79-2.87ZM63.66,180.31c1.52.89,3.29-1.27,1.9-2.35-1.97-1.53-3.23,1.57-1.9,2.35Z"/>
      <path class="cls-3" d="M121.72,38.15c1.52,3.62,4.46,4.4,5.52,8.64,1.31,5.24-1.6,10.04,1.34,14.91.53-.2.34-1.77.31-2.25-.06-1.14-.38-2.07-.31-3.26.24-4.5,3.1-6.49,5.66-9.7-.09,1.29-.79,2.44-.89,3.73-.14,1.82.55,3.4.22,5.29-.34,1.95-1.89,3.85-3.51,4.9-.49,2.34.79,9.71,4.26,8.67,2-.6,1.22-4.56-1.27-2.32-.19-.73.4-1.37,1.09-1.42,2.59-.21,3.72,5.34-.96,4.72-1.47-.2-1.91-1.51-2.74-2.12-3-2.18-8.92-1.46-10.76,1.99-1.89,3.54,2.04,3.94,2.05,2.34,0-.85-1.05-.43-.91-1.19.11-.49,1.25,0,1.44.66.74,2.51-3.85,3.71-3.85-.06,0-.99.64-1.43.48-2.23l-2.19,2.61c-.2.79.45,1.2.56,1.99.68,4.65-5.16,4.87-4.36.75.46-2.39,1.74-1.75,2.7-2.68.15-.14,1.75-2.83,1.65-2.97-1.83-.77-3.61-1.39-5.66-1.19-.07.46.56.35.9.44,1.41.37,3.11.23,4.17,1.2-2.23,1.06-4.82.42-6.71-1.05l-2.23-2.38c3.71.65,6.98-.53,10,2.39,2-.62,3.64-2.15,5.72-2.62,2.01-.46,4.05-.14,6.04.23l-2.27-4.75c-1.74.53-2.77,1.91-4.73,2.07-2.91.25-6.02-2.26-9.09-.9-.14-.67.32-.67.73-.91,4.35-2.44,7.03-3.56,12.09-1.78.19-.15-2.05-3.02-3.08-2.91-.38.04-.86.48-1.54.55-4.53.45-4.44-5.8.16-4.35,1.61.51,1.49,1.98,2.19,2.87.46.58,1.97,1.36,2.56,2.06l-.34-3.38c-.16-.49-1.5-1.04-1.93-1.5-4.54-4.72-.63-9.59-3.09-14.95l.6-.15ZM125.9,53.65v-5.22c0-.72-1.06-4.31-1.43-5.13-.28-.6-.57-1.16-1.1-1.58-.1,1.16.52,2.49.71,3.76.21,1.37.2,2.97.41,4.37l1.42,3.8ZM130.37,59.62l2.09-9.84c-1.92,2.07-2.49,6.05-2.38,8.8.01.36-.23,1.11.29,1.04ZM121.34,54.29c-1.45.35-.96,3.29,1.08,2.6,1.46-.49.41-2.97-1.08-2.6ZM123.66,60.51c-1.69-.18-3.9,0-5.66,0-.05,0-.87.29-.74.59,2.88.27,5.75.38,8.64.3-.2-.55-1.76-.84-2.24-.89ZM115.08,72.78c-1.47.42-1.37,3.23.77,2.59,1.43-.43.93-3.08-.77-2.59Z"/>
      <path class="cls-2" d="M39.6,66.48c.2-.01.8-.64,1.04-.15-2.26,2.4-4.34,4.13-7.88,3.7-.53-.07-1.28-.15-1.07-.86l4.77-1.19c-2.04-.08-4.15.16-5.66,1.64.88.39,1.22,2.09,1.56,2.45.49.52,2.24.48,2.77,2.15,1.14,3.54-2.73,5.06-4.01,1.93-.94-2.31.58-2.96.51-3.8-.03-.37-2.03-3.31-2.63-2.73.91,1.19,1.23,2.84.13,4.01-2.2,2.35-5.31-2.72-1.63-2.66.26.93-.92.48-.91,1.34.02,1.71,3.29,1.08,2.17-1.85-1.44-3.75-7.21-4.51-10.41-2.83-1.6.84-2.85,3.71-5.43,2.28-3.06-1.7.54-6.58,2.35-3.56-.54.84-.74-.11-1.35-.16-1.61-.14-1.75,2.12-.36,2.77,3.15,1.48,4.55-4.32,4.69-6.49.18-2.71-.69-1.98-2.08-3.58-3.09-3.58-.15-8.24-2.39-12.07.89-.09,1.04,1.04,1.5,1.55,4.93,5.5,4.13,5.09,3.85,12.6-.01.33-.19,1.13.31,1.05,3.54-5.89-.96-12.6,2.86-18.46l4.75-5.39c-.39,1.31-.93,2.64-1.03,4.03-.31,4.13,1.57,6.73-1.67,10.56-.54.63-1.88,1.48-2.05,1.82-.21.39-.63,3.03-.45,3.27.55-.48,2.19-1.3,2.51-1.81.72-1.14.23-2.44,2.47-2.9,4.47-.92,4.16,5.03-.95,4.39-.52-.06-.72-.66-1.34-.45-1.03.35-2.04,2-2.7,2.85,3.01-.58,5.42-1.58,8.46-.26l4.65,2.65c-4.31-.87-7.55,2.58-11.59.42-.52-.28-2.13-1.81-2.41-1.6l-2.39,5.07c2.84-.61,5.29-.6,8.04.45,1.04.4,2.98,1.96,3.73,1.96.89,0,2.67-2.12,3.87-2.12,1.74,0,3.66.12,5.37,0ZM22.16,53.65c.51-.08.52-.59.68-.96,1.47-3.49.93-7.7,2.3-11.26-2.8,3.3-2.91,8.1-2.98,12.23ZM18.28,59.91c-.18-3.21-.17-7.32-2.38-9.84l1.03,6.28,1.35,3.56ZM27.45,54.62c-.8-.81-2.53-.2-2.32,1.25.33,2.25,4.04.49,2.32-1.25ZM30.06,60.51c-1.52-.2-3.74,0-5.37,0-.34,0-2.23.42-2.24.89h6.41c.4,0,1.52-.62,2.23-.3v-.29c-.39.1-.79-.27-1.04-.3ZM33.71,73.11c-1.77-1.53-3.46,2.37-.97,2.49,1.52.07,1.76-1.8.97-2.49Z"/>
      <path class="cls-4" d="M132.76,87.94c4.31,1.64,1.72.44.63-1.97-.32-.72-.62-2.67-.99-3.03-.27-.26-.98-.26-1.39-.54-4.06-2.84-3.08-4.31-4.04-8.49-.35-1.54-1.32-2.68-1.65-4.16,2.27,2.4,5.13,3.19,6.67,6.3,1.69,3.43,1.06,7.25,2.58,10.69l.07-3.65c.23-1.74,1.12-2.88,1.71-4.4,1.67,2.83,4.72-1.29,2.17-2.04-2.15-.63-1.79,1.04-2.17,2.04,0-.02-.27.08-.31-.18-.6-3.95,5.37-6.03,4.75-1.19-.37,2.92-2.45,1.96-3.86,3.29-2.75,2.6-1.35,8.57,1.65,10.59.99-2.92,4.68-9.44,8.48-6.99,3.27,2.11-1.44,7.15-2.97,3.12.65-.1.94.61,1.48.77,1.89.55,2.3-3.36-.45-3.47-3.4-.14-3.9,5.72-5.4,7.92,1.43,2.05,2.13,8.27,5.36,8.11,2.5-.12,2.62-3.7.66-3.51-.36.04-1.63,1.43-1.65.46,0-.48,1.04-1.32,1.63-1.32,3.96.02,3.07,7.65-2.45,4.51-2.57-1.46-3.47-4.47-4.71-6.92-2.73,2.13-4.03,6.21-2.59,9.44,1.22,2.71,3.45,1.53,4.48,3.57,2.19,4.3-3.78,5-4.42,1.14-.34-2.06-.34-3.4-1.44-5.42l-.07-4.25c-1.64,3.61-.92,7.79-2.87,11.29-1.51,2.71-4.3,3.57-6.37,5.7.18-1.22.97-2.03,1.34-3.28.87-2.97.21-5.56,2.69-8.05.75-.76,2.67-1.45,2.97-1.8.86-1,1.03-4.53,2.84-5.51.06-.8-.13-.29-.51-.21-2.07.47-1.36,1-2.49,1.68-4.58,2.78-5.75-5.28.44-3.14.29.13.15.4.17.62-.13,0-.62-.31-1.04-.32-2.6-.06-1.66,3.43.63,2.13.5-.4.47-1.22.42-1.82,2.18-.05,4.34-1.11,5.32-3.08-.6-1.29-1.82-2.45-3.22-2.75-2.26-.49-4.24,1.98-6.14-.12-2.33-2.57,3.18-4.49,4.04-1.8-.94-.36-1.5-1.05-2.36.2-1.29,1.87,3.38,2.99,2.36-.2ZM132.16,81.98c-.85-3.09-1.5-6.91-4.17-8.95,1.44,2.92,1.8,6.61,4.17,8.95ZM132.16,103.45c-.76-.17-.52.2-.77.56-1.8,2.54-2.31,5.9-3.7,8.68,2.69-2.33,3.44-6,4.47-9.24ZM137.72,105.6c-2.01.18-1.63,3.19.25,3.19,2.17,0,1.56-3.36-.25-3.19Z"/>
      <path class="cls-7" d="M19.07,80.99c-.87.94-3.3,1.79-3.42,1.95-.15.2-.6,2.55-.99,3.33-.46.94-1.26,1.65-1.75,2.57,2.58-.14,2.6-2.53,5.49-2.07,3.65.58-.14,5.81-2.51,3.26,5.04-.48-.41-5.39-.6-.3-1.44-.55-5.06,1.34-5.06,2.83s3.28,3.2,4.64,3.11c.59-.04.77-.67,1.23-.81,4.75-1.49,5.45,5.33-.21,3.51-.22-1,.81-.4,1.49-.74.93-.46.76-1.86-.21-2.19-1.9-.56-1.66,1.2-1.9,1.41-.32.29-2.47-.81-2.06.17.16.38,1.18,1.32,1.54,2.04.41.83.73,2.78,1.11,3.29.14.19,1.65.65,2.26,1.09,3.27,2.37,2.4,5.36,3.34,8.59.35,1.22,1.2,2.16,1.58,3.33l-4.62-3.28c-4.42-3.61-2.5-9.39-5.07-13.71.24,1.88.57,3.15,0,5.07-.63,2.13-.88,1.47-1.06,4-.36,5.03-7.58,3.47-4.23-.95.99-1.31,2.1-.91,3.08-1.69,2.86-2.24,1.58-9.22-1.67-10.91-.67,2.93-4.98,9.88-8.51,7.02-3.11-2.52,2.12-6.98,2.99-2.85-.86.26-.52-.68-1.07-.86-2.42-.79-2.58,3.32.08,3.46,3.41.17,4.09-5.91,5.45-8.11-1.25-1.94-1.97-7.58-4.63-7.9-3.49-.42-3.34,3.57-1.21,3.5.93-.03.51-1.02,1.38-.82.67.81-1.59,2.38-3.17.79-1.28-1.28-.86-3.89,1-4.31,3.88-.86,6.81,4.2,7.54,7.39.45.12.38,0,.59-.18,2.41-2.04,3.5-6.13,2.24-9.06-1.2-2.79-3.61-1.61-4.65-4-1.17-2.68,1.41-4.62,3.51-2.76,1.38,1.22.71,2.82,1.06,4.16.22.83,1.53,2.13,1.39,3.38l.03,4.29c1.68-3.51.97-7.6,2.74-11.13,1.49-2.97,4.56-3.93,6.8-6.17-.5,1.23-1.18,1.99-1.57,3.35-.8,2.75-.27,5.55-2.4,7.88ZM16.49,81.98l3.88-9.24c-2.8,2.2-3.19,6.01-4.47,9.1l.59.14ZM9.11,79.23c2,2.01,4.11-2.48,1.27-2.64-1.69-.1-2.18,1.72-1.27,2.64ZM20.36,112.4l-2.33-6.17-1.84-3.08c.64,3.2,1.51,7.14,4.17,9.24ZM11.38,105.88l-2.05.1c-.54.57-.86,1.45-.32,2.11l1.14.69c1.56-.08,1.93-1.65,1.23-2.9Z"/>
      <path class="cls-6" d="M128.58,123.43l-1.5,3.42c-.25,4.18,1.26,7.94.16,12.09-.98,3.67-3.95,5.01-5.37,8.35-.77.1-.42-.49-.3-.9.3-1.03.66-1.6.76-2.82.31-3.82-1.48-6.97,1.05-10.58.5-.71,2.35-2.01,2.44-2.18.53-.92.21-3.8.67-5-.94.57-1.54,1.55-2.4,2.22-.43.33-1.6.67-1.7.83-.6.87-.02,2.4-2.37,2.85-4.36.84-4.13-5.19.95-4.4.52.08.84.68,1.43.54.71-.16,2.17-1.68,2.61-2.34-2.27.72-4.52,1.19-6.86.45-1.73-.55-3.14-2.24-5.07-2.39-.07-.98,1.46-.17,1.94-.21,3.85-.28,6.73-3.06,10.67-.24.32.23.03.83.8.6.86-1.68,1.75-3.57,2.75-5.15.74-1.17,1.69-2.83,3.13-3.12,3.98-.82,4.24,3.87,1.88,4.58-.96.29-2.64-.21-1.65-1.36,2.21,2.4,3.41-1.82.82-2.34-3.26-.66-3.98,5.28-3.67,7.57.18,1.32,1.72,1.67,2.53,2.84,2.55,3.68-.15,7.82,2.26,11.61l-3.88-3.81c-.69-.8-2.08-3.42-2.08-4.39v-6.71ZM125.6,124.32c-.11-.54-.59-.55-1.03-.6-2.59-.29-5.36.45-7.91.76,2.93,1.05,5.97.08,8.95-.15ZM132.16,134.76c-.44-2.29-.63-4.67-1.27-6.92-.19-.68-.49-1.92-1.11-2.32.1,2.97.39,6.93,2.38,9.24ZM121.68,128.24c-.49-.79-3.28-.34-2.5,1.43.88,2.01,3.48.13,2.5-1.43ZM125.9,137.29c.18-1.85-.13-3.94,0-5.81-.45,0-.56.9-.67,1.26-1.1,3.46-.73,7.05-1.71,10.51.14.39.65-.35.72-.47.74-1.26,1.53-4.04,1.67-5.49Z"/>
      <path class="cls-5" d="M34.97,123.13c.15.87-1.31.78-1.99,1.14-.75.4-1.41,1.07-2.18,1.39-2.79,1.18-4.98.59-7.75-.15l2.6,2.34c.82.25,3.06-1.59,4.87.17,2.78,2.73-2.22,5.78-4.6,1.92-.21-.33-.13-.87-.34-1.16-.11-.16-1.87-1.06-2.38-1.5-.65-.57-.88-1.4-1.64-1.79.68.97.4,4.94.64,5.32.06.09.94.31,1.3.63,4.22,3.71,2.1,7.21,2.21,11.49.04,1.48.74,2.87.91,4.32l-4.72-5.86c-.51-1.24-1.1-2.48-1.24-3.83-.51-4.99,1.75-9.83-.9-14.46-.52.09-.33,1.55-.31,1.95.42,7.28-.06,6.84-4.46,11.91-.23.27-.72,1.87-1.19,1.34-.11-.12.81-2.38.89-3.13.32-3.1-.79-6.15,1.49-8.86.44-.53,2.01-1.34,2.24-1.72.82-1.35-.51-7.4-2.24-8.19-3.04-1.38-4.31,4.36-.29,2.53-1.04,3.1-5.25-.8-2.79-2.94,4.46-3.87,7.81,7.72,8.9,7.7,3.95-4.15,8.43.27,12.97-.59ZM31.4,124.33c-2.44-.03-4.86-.82-7.32-.61-.52.04-1.15-.06-1.33.61,2.41.24,4.82.83,7.27.56.31-.03,1.4-.12,1.38-.56ZM16.19,135.06c1.67-2.97,2.14-6.46,2.39-9.84l-1.34,2.68c-.27,2.11-.82,4.17-1.2,6.25-.06.31-.39.98.16.91ZM27.14,127.95c-2.01.6.14,3.78,1.58,2.19.93-1.02-.04-2.65-1.58-2.19ZM22.16,131.18v4.62c0,1.92.98,5.57,2.04,7.21.09.14.43.96.65.54l-1.58-9.75-1.1-2.62Z"/>
    </g>
  </g>
</svg>