<?xml version="1.0" encoding="UTF-8"?>
<svg id="Layer_2" data-name="Layer 2" xmlns="http://www.w3.org/2000/svg" xmlns:xlink="http://www.w3.org/1999/xlink" viewBox="0 0 261.59 51.84">
  <defs>
    <style>
      .cls-1 {
        fill: url(#linear-gradient-15);
      }

      .cls-2 {
        fill: url(#linear-gradient-13);
      }

      .cls-3 {
        fill: url(#linear-gradient-28);
      }

      .cls-4 {
        fill: url(#linear-gradient-2);
      }

      .cls-5 {
        fill: url(#linear-gradient-25);
      }

      .cls-6 {
        fill: url(#linear-gradient-10);
      }

      .cls-7 {
        fill: url(#linear-gradient-12);
      }

      .cls-8 {
        fill: url(#linear-gradient-27);
      }

      .cls-9 {
        fill: url(#linear-gradient-26);
      }

      .cls-10 {
        fill: url(#linear-gradient-4);
      }

      .cls-11 {
        fill: url(#linear-gradient-30);
      }

      .cls-12 {
        fill: url(#linear-gradient-3);
      }

      .cls-13 {
        fill: url(#linear-gradient-5);
      }

      .cls-14 {
        fill: url(#linear-gradient-22);
      }

      .cls-15 {
        fill: url(#linear-gradient-24);
      }

      .cls-16 {
        fill: url(#linear-gradient-8);
      }

      .cls-17 {
        fill: url(#linear-gradient-14);
      }

      .cls-18 {
        fill: url(#linear-gradient-29);
      }

      .cls-19 {
        fill: url(#linear-gradient-20);
      }

      .cls-20 {
        fill: url(#linear-gradient-17);
      }

      .cls-21 {
        fill: url(#linear-gradient-7);
      }

      .cls-22 {
        fill: url(#linear-gradient-9);
      }

      .cls-23 {
        fill: url(#linear-gradient-11);
      }

      .cls-24 {
        fill: url(#linear-gradient-19);
      }

      .cls-25 {
        fill: url(#linear-gradient-6);
      }

      .cls-26 {
        fill: url(#linear-gradient-21);
      }

      .cls-27 {
        fill: url(#linear-gradient-16);
      }

      .cls-28 {
        fill: url(#linear-gradient);
      }

      .cls-29 {
        fill: url(#linear-gradient-23);
      }

      .cls-30 {
        fill: url(#linear-gradient-18);
      }
    </style>
    <linearGradient id="linear-gradient" x1="60.97" y1="44.84" x2="75.22" y2="44.84" gradientUnits="userSpaceOnUse">
      <stop offset="0" stop-color="#fffeba"/>
      <stop offset="0" stop-color="#fad483"/>
      <stop offset=".23" stop-color="#efcb80"/>
      <stop offset=".41" stop-color="#ffeca8"/>
      <stop offset=".59" stop-color="#ffeca7"/>
      <stop offset=".77" stop-color="#ffffc9"/>
      <stop offset="1" stop-color="#ffedab"/>
    </linearGradient>
    <linearGradient id="linear-gradient-2" x1="71.55" y1="44.49" x2="79.24" y2="44.49" xlink:href="#linear-gradient"/>
    <linearGradient id="linear-gradient-3" x1="79.59" y1="42.76" x2="88.15" y2="42.76" xlink:href="#linear-gradient"/>
    <linearGradient id="linear-gradient-4" x1="88.8" y1="44.49" x2="96.48" y2="44.49" xlink:href="#linear-gradient"/>
    <linearGradient id="linear-gradient-5" x1="97.02" y1="42.73" x2="103.28" y2="42.73" xlink:href="#linear-gradient"/>
    <linearGradient id="linear-gradient-6" x1="102.67" y1="43.17" x2="105.96" y2="43.17" xlink:href="#linear-gradient"/>
    <linearGradient id="linear-gradient-7" x1="106.62" y1="44.44" x2="116.25" y2="44.44" xlink:href="#linear-gradient"/>
    <linearGradient id="linear-gradient-8" x1="116.46" y1="43.17" x2="119.76" y2="43.17" xlink:href="#linear-gradient"/>
    <linearGradient id="linear-gradient-9" x1="120.41" y1="44.44" x2="130.04" y2="44.44" xlink:href="#linear-gradient"/>
    <linearGradient id="linear-gradient-10" x1="130.1" y1="46.3" x2="137.13" y2="46.3" xlink:href="#linear-gradient"/>
    <linearGradient id="linear-gradient-11" x1="142.48" y1="44.49" x2="148.36" y2="44.49" xlink:href="#linear-gradient"/>
    <linearGradient id="linear-gradient-12" x1="149.09" y1="43.37" x2="155.85" y2="43.37" xlink:href="#linear-gradient"/>
    <linearGradient id="linear-gradient-13" x1="156.21" y1="43.17" x2="159.51" y2="43.17" xlink:href="#linear-gradient"/>
    <linearGradient id="linear-gradient-14" x1="160.17" y1="42.73" x2="163.45" y2="42.73" xlink:href="#linear-gradient"/>
    <linearGradient id="linear-gradient-15" x1="164.05" y1="42.73" x2="167.33" y2="42.73" xlink:href="#linear-gradient"/>
    <linearGradient id="linear-gradient-16" x1="167.93" y1="44.44" x2="177.56" y2="44.44" xlink:href="#linear-gradient"/>
    <linearGradient id="linear-gradient-17" x1="177.62" y1="44.49" x2="185.3" y2="44.49" xlink:href="#linear-gradient"/>
    <linearGradient id="linear-gradient-18" x1="185.91" y1="44.49" x2="191.8" y2="44.49" xlink:href="#linear-gradient"/>
    <linearGradient id="linear-gradient-19" x1="192.91" y1="44.49" x2="198.8" y2="44.49" xlink:href="#linear-gradient"/>
    <linearGradient id="linear-gradient-20" x1="0" y1="13.37" x2="8.34" y2="13.37" xlink:href="#linear-gradient"/>
    <linearGradient id="linear-gradient-21" x1="11.49" y1="16.6" x2="34.24" y2="16.6" xlink:href="#linear-gradient"/>
    <linearGradient id="linear-gradient-22" x1="36.79" y1="16.14" x2="54.49" y2="16.14" xlink:href="#linear-gradient"/>
    <linearGradient id="linear-gradient-23" x1="56.81" y1="16.69" x2="78.87" y2="16.69" xlink:href="#linear-gradient"/>
    <linearGradient id="linear-gradient-24" x1="81.74" y1="16.62" x2="96.69" y2="16.62" xlink:href="#linear-gradient"/>
    <linearGradient id="linear-gradient-25" x1="99.85" y1="16.63" x2="119.97" y2="16.63" xlink:href="#linear-gradient"/>
    <linearGradient id="linear-gradient-26" x1="168.35" y1="16.63" x2="195.54" y2="16.63" xlink:href="#linear-gradient"/>
    <linearGradient id="linear-gradient-27" x1="198.43" y1="13.45" x2="220.49" y2="13.45" xlink:href="#linear-gradient"/>
    <linearGradient id="linear-gradient-28" x1="223.36" y1="16.62" x2="238.31" y2="16.62" xlink:href="#linear-gradient"/>
    <linearGradient id="linear-gradient-29" x1="241.46" y1="16.63" x2="261.59" y2="16.63" xlink:href="#linear-gradient"/>
    <linearGradient id="linear-gradient-30" x1="130.18" y1="16.38" x2="152.68" y2="16.38" xlink:href="#linear-gradient"/>
  </defs>
  <g id="Layer_1-2" data-name="Layer 1">
    <g>
      <g>
        <g>
          <path class="cls-28" d="M75.18,50.75s.03.01.04.04c0,.03,0,.06-.03.09-.29.31-.56.51-.83.62s-.59.16-.97.16c-.79,0-1.52-.23-2.17-.7-.65-.47-1.17-1.07-1.55-1.82-.13-.26-.27-.57-.42-.94-.15-.37-.29-.73-.44-1.1-.32-.85-.61-1.53-.84-2.05-.24-.52-.52-.95-.84-1.31-.32-.36-.67-.54-1.05-.54-.75,0-1.47-.16-2.13-.44v2.97c0,.73.05,1.24.15,1.55.1.31.28.51.53.59.25.09.68.13,1.28.14.07,0,.1.02.1.05s-.03.05-.1.05c-.62,0-1.14,0-1.56-.03-.13,0-.32-.01-.56-.01h-.66c-.16,0-.29,0-.39.01-.31.02-.68.03-1.12.03-.05,0-.07-.02-.07-.05s.02-.05.07-.05c.43,0,.73-.05.91-.14.18-.08.3-.26.37-.54s.11-.75.11-1.41v-3.65c-.62-.4-1.11-.88-1.48-1.43-.37-.55-.55-1.11-.55-1.66,0-.34.1-.63.31-.85s.5-.33.88-.33h.49c.19.03.35.04.47.04h3.25c1.26,0,2.21.24,2.86.71.64.47.97,1.11.97,1.91,0,.74-.33,1.32-1,1.74-.66.42-1.49.67-2.49.75.46.11.86.35,1.21.7.35.35.65.76.9,1.22.25.46.55,1.07.9,1.83.39.85.7,1.48.93,1.91.48.91.92,1.59,1.33,2.03.41.45.89.67,1.43.67.31,0,.6-.05.88-.15.28-.1.55-.29.8-.58.03-.04.06-.06.09-.06ZM61.61,40.75c.34.53.81.99,1.39,1.38v-2.25c0-.65-.08-1.1-.22-1.36-.14-.26-.35-.39-.62-.39-.36,0-.63.1-.8.29-.17.19-.26.45-.26.77,0,.51.17,1.02.52,1.55ZM63.93,42.65c.69.3,1.41.45,2.16.46h.01c1.01-.02,1.76-.22,2.25-.59.49-.38.73-.97.73-1.77,0-.75-.24-1.37-.73-1.84-.49-.47-1.18-.71-2.09-.71h-2.22c-.04.16-.06.34-.08.54s-.03.57-.04,1.1v2.81Z"/>
          <path class="cls-4" d="M79.19,44.69s.03,0,.04.03c0,.02,0,.04,0,.07-.39,1.11-.93,1.96-1.63,2.55-.69.59-1.54.89-2.54.89-.68,0-1.28-.16-1.82-.48-.53-.32-.95-.75-1.25-1.29-.3-.54-.44-1.12-.44-1.75,0-.68.15-1.32.46-1.93.31-.61.74-1.1,1.31-1.47.57-.37,1.23-.56,1.98-.56.48,0,.93.06,1.35.19.43.13.77.31,1.02.54.26.23.39.5.39.81,0,.38-.13.69-.39.91-.26.22-.58.39-.95.49-.37.1-.87.2-1.49.31-.42.07-.75.13-.99.19-.53.11-.92.27-1.2.48-.27.21-.38.5-.34.88.23.63.59,1.14,1.1,1.53s1.13.59,1.88.59c.79,0,1.48-.25,2.06-.76.58-.51,1.04-1.23,1.36-2.16,0-.04.03-.06.07-.06ZM72.6,45.2c.06-.31.23-.55.51-.72.28-.18.66-.31,1.12-.41l.53-.11c.51-.1.91-.19,1.22-.29.31-.1.56-.25.77-.46.21-.21.32-.5.32-.86,0-.41-.15-.76-.44-1.04-.29-.28-.73-.42-1.32-.42-.55,0-1.05.14-1.48.41-.43.27-.76.65-1,1.15-.24.49-.36,1.06-.36,1.7,0,.36.04.72.13,1.06Z"/>
          <path class="cls-12" d="M80.26,47.46c-.45-.52-.67-1.32-.67-2.42,0-.84.18-1.59.54-2.23.36-.65.84-1.15,1.44-1.51.6-.36,1.26-.54,1.96-.54.5,0,.93.06,1.3.18s.73.29,1.1.51v-2.18c0-.35-.06-.62-.17-.8s-.32-.27-.63-.27c-.05,0-.15,0-.3.03-.03,0-.05,0-.05-.02,0-.02,0-.04.04-.05.27-.09.59-.21.98-.39.39-.17.69-.32.91-.44.02-.02.04-.02.06-.01s.03.03.03.06v9.55c0,.34.03.63.09.85.06.22.19.33.39.33.16,0,.31-.05.45-.15.14-.1.25-.24.32-.42.03-.04.06-.05.09-.03s.04.05.02.09c-.22.44-.55.66-1,.66-.39,0-.69-.13-.9-.39s-.31-.61-.31-1.04v-2.21l.21-2.85h-.1c-.17,1.25-.46,2.37-.86,3.35s-.88,1.75-1.43,2.31c-.55.55-1.13.83-1.73.83-.72,0-1.3-.26-1.75-.77ZM83.88,47c.5-.55.93-1.3,1.28-2.23.35-.93.6-1.95.74-3.04v-.13c-.44-.25-.82-.43-1.15-.54-.32-.11-.76-.17-1.3-.17-.52,0-.99.16-1.43.49-.44.33-.79.79-1.05,1.38-.26.59-.39,1.25-.39,1.98,0,.57.07,1.1.21,1.57.14.47.34.85.6,1.12s.55.41.89.41c.55,0,1.08-.28,1.58-.83Z"/>
          <path class="cls-10" d="M96.43,44.69s.03,0,.04.03c0,.02,0,.04,0,.07-.39,1.11-.93,1.96-1.63,2.55-.69.59-1.54.89-2.54.89-.68,0-1.28-.16-1.82-.48-.53-.32-.95-.75-1.25-1.29-.3-.54-.44-1.12-.44-1.75,0-.68.15-1.32.46-1.93.31-.61.74-1.1,1.31-1.47.57-.37,1.23-.56,1.98-.56.48,0,.93.06,1.35.19.43.13.77.31,1.02.54.26.23.39.5.39.81,0,.38-.13.69-.39.91-.26.22-.58.39-.95.49-.37.1-.87.2-1.49.31-.42.07-.75.13-.99.19-.53.11-.92.27-1.2.48-.27.21-.38.5-.34.88.23.63.59,1.14,1.1,1.53s1.13.59,1.88.59c.79,0,1.48-.25,2.06-.76.58-.51,1.04-1.23,1.36-2.16,0-.04.03-.06.07-.06ZM89.85,45.2c.06-.31.23-.55.51-.72.28-.18.66-.31,1.12-.41l.53-.11c.51-.1.91-.19,1.22-.29.31-.1.56-.25.77-.46.21-.21.32-.5.32-.86,0-.41-.15-.76-.44-1.04-.29-.28-.73-.42-1.32-.42-.55,0-1.05.14-1.48.41-.43.27-.76.65-1,1.15-.24.49-.36,1.06-.36,1.7,0,.36.04.72.13,1.06Z"/>
          <path class="cls-13" d="M102.47,37.72c.46.26.73.58.82.94-.33.37-.63.79-.9,1.25s-.48.93-.64,1.4c-.02.06-.05.08-.09.06-.04-.02-.05-.05-.04-.09.24-.61.49-1.14.74-1.58.03-.14.04-.29.04-.44,0-.49-.13-.91-.39-1.27-.26-.36-.64-.54-1.12-.54-1.19,0-1.79.85-1.79,2.54v.89h1.66c.06,0,.08.02.08.06,0,.04-.03.06-.08.06h-1.66v5.54c0,.42.03.73.08.92.05.19.17.33.36.42.19.09.5.14.94.14.05,0,.07.02.07.05s-.02.05-.07.05c-.43,0-.79,0-1.07-.03-.09,0-.21-.01-.39-.01h-.7c-.14,0-.25,0-.32.01-.25.02-.55.03-.9.03-.04,0-.06-.02-.06-.05s.02-.05.06-.05c.36,0,.62-.05.78-.14.16-.09.26-.23.3-.42.04-.19.06-.5.06-.92v-5.54h-1.02s-.07-.02-.06-.06c0-.04.03-.06.08-.06h1c0-.84.14-1.53.42-2.06.28-.53.62-.91,1.02-1.15.41-.23.81-.35,1.21-.35.6,0,1.13.13,1.59.39Z"/>
          <path class="cls-25" d="M105.96,48.07s-.02.05-.07.05c-.36,0-.66,0-.9-.01-.07,0-.17-.01-.31-.01h-.73c-.14,0-.25,0-.32.01-.25.02-.55.03-.9.03-.04,0-.06-.02-.06-.05s.02-.05.06-.05c.36,0,.62-.05.78-.14.16-.09.26-.23.3-.42.04-.19.06-.5.06-.92v-2.88c0-.44.09-.88.28-1.32.19-.44.51-.83.98-1.17-.53.23-.98.49-1.38.79-.39.3-.71.58-.95.86-.01.03-.03.04-.07.04-.03,0-.05-.01-.06-.04-.01-.03,0-.06.03-.09.32-.38.74-.75,1.29-1.1.54-.35,1.14-.63,1.78-.83,0,0,.03-.01.06-.01s.05.01.05.04,0,.05-.02.07c-.45.31-.75.7-.91,1.17-.16.48-.24,1.05-.24,1.7v2.76c.02.43.05.74.09.92.04.19.14.32.3.41s.42.13.78.13c.05,0,.07.02.07.05ZM104.13,39.27c-.12-.12-.18-.27-.18-.44s.06-.32.18-.44c.12-.12.27-.19.44-.19s.32.06.44.18.19.27.19.45c0,.17-.06.32-.17.44-.11.12-.27.18-.46.18-.17,0-.32-.06-.44-.18Z"/>
          <path class="cls-21" d="M116.25,48.08s-.02.05-.07.05c-.35,0-.65,0-.9-.03-.07,0-.17-.01-.31-.01h-.73c-.15,0-.27,0-.34.01-.23.02-.52.03-.87.03-.04,0-.06-.02-.06-.05s.02-.05.06-.05c.4,0,.68-.07.82-.17.15-.1.22-.29.22-.56,0-.09-.03-.33-.09-.73l-.47-2.85c-.16-.98-.37-1.66-.62-2.02s-.58-.54-.99-.54c-.47,0-.92.24-1.37.72-.44.48-.83,1.16-1.15,2.06-.32.89-.55,1.93-.67,3.1,0,.26.05.46.11.59.06.14.17.24.33.31.16.07.39.1.69.1.05,0,.07.02.07.05s-.02.05-.07.05c-.35,0-.65,0-.9-.03-.07,0-.17-.01-.32-.01h-.72c-.15,0-.27,0-.34.01-.23.02-.52.03-.87.03-.04,0-.06-.02-.06-.05s.02-.05.06-.05c.36,0,.62-.05.78-.14.16-.09.26-.23.3-.42.04-.19.06-.5.06-.92v-3.38c0-.56-.07-.99-.2-1.27-.13-.28-.39-.42-.76-.42-.02,0-.03-.03-.03-.05s0-.04.03-.05c.65-.12,1.23-.33,1.73-.62,0,0,.02-.02.04-.02.02,0,.03,0,.04.02v2.59l-.23,3.87h.07c.16-1.47.44-2.69.84-3.65.4-.96.85-1.67,1.36-2.12.51-.45,1.03-.67,1.55-.67.45,0,.81.11,1.07.34.27.22.48.56.63,1,.15.44.29,1.05.42,1.81l.44,2.64c.08.44.15.75.21.92.06.18.17.31.34.4.16.09.42.14.79.14.05,0,.07.02.07.05Z"/>
          <path class="cls-16" d="M119.76,48.07s-.02.05-.07.05c-.36,0-.66,0-.9-.01-.07,0-.17-.01-.32-.01h-.73c-.14,0-.25,0-.32.01-.25.02-.55.03-.9.03-.04,0-.06-.02-.06-.05s.02-.05.06-.05c.36,0,.62-.05.78-.14.16-.09.26-.23.3-.42.04-.19.06-.5.06-.92v-2.88c0-.44.09-.88.28-1.32.19-.44.51-.83.98-1.17-.53.23-.98.49-1.38.79-.39.3-.71.58-.95.86,0,.03-.03.04-.07.04-.03,0-.05-.01-.06-.04,0-.03,0-.06.03-.09.32-.38.75-.75,1.29-1.1.54-.35,1.14-.63,1.78-.83,0,0,.03-.01.06-.01s.05.01.05.04,0,.05-.02.07c-.45.31-.75.7-.91,1.17-.16.48-.24,1.05-.24,1.7v2.76c.02.43.05.74.09.92.04.19.14.32.3.41.16.09.42.13.78.13.05,0,.07.02.07.05ZM117.93,39.27c-.12-.12-.18-.27-.18-.44s.06-.32.18-.44c.12-.12.27-.19.44-.19s.32.06.44.18c.12.12.19.27.19.45,0,.17-.06.32-.17.44-.11.12-.27.18-.46.18-.17,0-.32-.06-.44-.18Z"/>
          <path class="cls-22" d="M130.04,48.08s-.02.05-.07.05c-.35,0-.65,0-.9-.03-.07,0-.17-.01-.32-.01h-.73c-.15,0-.27,0-.34.01-.23.02-.52.03-.87.03-.04,0-.06-.02-.06-.05s.02-.05.06-.05c.4,0,.68-.07.82-.17.15-.1.22-.29.22-.56,0-.09-.03-.33-.09-.73l-.47-2.85c-.16-.98-.37-1.66-.62-2.02-.25-.36-.58-.54-.99-.54-.47,0-.92.24-1.37.72-.44.48-.83,1.16-1.15,2.06-.32.89-.55,1.93-.67,3.1,0,.26.05.46.11.59.06.14.17.24.33.31s.39.1.69.1c.05,0,.07.02.07.05s-.02.05-.07.05c-.35,0-.65,0-.9-.03-.07,0-.17-.01-.32-.01h-.72c-.15,0-.27,0-.34.01-.23.02-.52.03-.87.03-.04,0-.06-.02-.06-.05s.02-.05.06-.05c.36,0,.62-.05.78-.14.16-.09.26-.23.3-.42.04-.19.06-.5.06-.92v-3.38c0-.56-.07-.99-.2-1.27-.13-.28-.39-.42-.76-.42-.02,0-.03-.03-.03-.05s0-.04.03-.05c.65-.12,1.23-.33,1.73-.62,0,0,.02-.02.04-.02.02,0,.03,0,.04.02v2.59l-.23,3.87h.07c.16-1.47.44-2.69.84-3.65.4-.96.85-1.67,1.36-2.12.51-.45,1.03-.67,1.55-.67.45,0,.81.11,1.07.34.27.22.48.56.63,1,.15.44.29,1.05.42,1.81l.44,2.64c.08.44.15.75.21.92.06.18.17.31.34.4.16.09.42.14.79.14.05,0,.07.02.07.05Z"/>
          <path class="cls-6" d="M137.1,40.85s.04.02.04.06v5.86c-.01,1.13-.24,2.07-.69,2.84-.45.76-1.02,1.33-1.69,1.69-.67.36-1.34.54-2,.54s-1.17-.12-1.54-.37c-.37-.25-.55-.61-.55-1.07,0-.39.12-.69.35-.9.23-.21.52-.36.87-.44.34-.09.81-.16,1.39-.23l.33-.04c.47-.06.91-.2,1.31-.43s.73-.53.98-.9c.25-.37.37-.79.37-1.26v-.72l.14-3.35h-.09c-.04,1.25-.25,2.34-.62,3.27-.38.93-.84,1.63-1.39,2.12-.55.49-1.1.73-1.65.73-.75,0-1.37-.26-1.84-.78-.47-.52-.71-1.33-.71-2.43,0-.76.17-1.47.52-2.13.34-.65.8-1.17,1.38-1.56s1.2-.58,1.87-.58c.26,0,.49.03.69.08s.42.13.66.24c.23.09.41.15.53.18.12.03.26.05.4.05.2,0,.38-.03.55-.1s.28-.17.34-.3c.02-.03.04-.04.06-.04ZM134.5,51.15c.52-.37.95-.91,1.26-1.63.31-.71.48-1.55.5-2.53-.18.52-.52.95-1.01,1.28-.49.33-1.05.54-1.67.62-.69.09-1.2.16-1.54.24-.34.07-.63.21-.88.4-.25.2-.37.48-.37.87,0,.47.19.8.57,1,.38.2.85.3,1.43.3.62,0,1.19-.19,1.72-.56ZM136.19,42.13l-.22-.2c-.34-.33-.67-.59-.97-.77-.31-.18-.7-.27-1.17-.27-.56,0-1.05.17-1.47.5-.42.33-.73.79-.95,1.38s-.33,1.24-.33,1.98c0,.96.15,1.72.46,2.31.31.58.76.87,1.38.87.45,0,.91-.21,1.4-.62.48-.42.9-1.06,1.25-1.92.35-.86.56-1.92.63-3.17v-.07Z"/>
          <path class="cls-23" d="M147.83,45.02c.35.34.53.76.53,1.27,0,.59-.28,1.06-.84,1.41-.56.35-1.24.52-2.04.52-.66,0-1.28-.14-1.86-.41-.58-.27-.96-.59-1.15-.95.35-.44.6-.77.74-.99.14-.22.31-.55.52-1,.03-.05.06-.07.09-.07.02,0,.03.01.04.04s0,.05,0,.08c-.26.53-.45.9-.59,1.12.09.63.31,1.13.67,1.5.36.37.87.56,1.53.56.53.02,1.01-.1,1.44-.34.42-.25.64-.6.64-1.06,0-.36-.11-.68-.33-.96s-.53-.5-.92-.66c-.33-.13-.66-.25-.97-.36-.09-.03-.2-.07-.34-.11-.14-.05-.3-.11-.48-.19-.5-.22-.88-.48-1.14-.78s-.39-.68-.39-1.14c0-.35.13-.66.39-.92s.58-.46.96-.6c.38-.14.74-.21,1.09-.21.57,0,1.13.11,1.67.34.54.23.93.53,1.18.9-.52.53-.93,1.15-1.25,1.88,0,.03-.03.04-.06.04s-.05-.01-.06-.04c-.01-.02,0-.05.01-.08.15-.33.3-.61.43-.83,0-.07.01-.17.01-.3,0-.53-.19-.96-.57-1.29s-.85-.5-1.41-.5c-.46,0-.85.13-1.17.38-.32.25-.49.58-.49.97,0,.59.36,1.04,1.07,1.35.22.1.58.23,1.07.4l.5.19c.62.23,1.11.51,1.46.85Z"/>
          <path class="cls-7" d="M155.81,44.72s.05.05.04.09c-.38,1.11-.82,1.96-1.31,2.54-.49.59-1.15.88-1.98.88-.73,0-1.29-.22-1.7-.67-.41-.44-.62-1.03-.62-1.75v-4.8h-1.07s-.06-.02-.06-.06.02-.06.06-.07c.54-.19.97-.47,1.28-.84s.51-.87.59-1.5c0-.03.03-.04.05-.04s.04.02.04.04v2.34h3.4s.07.02.08.06c0,.04-.02.06-.08.06h-3.41v4.47c0,.74.13,1.34.38,1.83s.67.72,1.25.72c.73,0,1.31-.28,1.76-.84.45-.56.85-1.37,1.22-2.43.02-.05.05-.06.09-.05Z"/>
          <path class="cls-2" d="M159.51,48.07s-.02.05-.07.05c-.36,0-.66,0-.9-.01-.07,0-.17-.01-.32-.01h-.73c-.14,0-.25,0-.32.01-.25.02-.55.03-.9.03-.04,0-.06-.02-.06-.05s.02-.05.06-.05c.36,0,.62-.05.78-.14.16-.09.26-.23.3-.42.04-.19.06-.5.06-.92v-2.88c0-.44.09-.88.28-1.32.19-.44.51-.83.98-1.17-.53.23-.98.49-1.38.79-.39.3-.71.58-.95.86,0,.03-.03.04-.07.04-.03,0-.05-.01-.06-.04,0-.03,0-.06.03-.09.32-.38.74-.75,1.29-1.1.54-.35,1.14-.63,1.78-.83,0,0,.03-.01.06-.01s.05.01.05.04c0,.03,0,.05-.02.07-.45.31-.75.7-.91,1.17-.16.48-.24,1.05-.24,1.7v2.76c.02.43.05.74.09.92.04.19.14.32.3.41.16.09.42.13.78.13.05,0,.07.02.07.05ZM157.68,39.27c-.12-.12-.18-.27-.18-.44s.06-.32.18-.44c.12-.12.27-.19.44-.19s.32.06.44.18c.12.12.19.27.19.45,0,.17-.06.32-.17.44-.11.12-.27.18-.46.18-.17,0-.32-.06-.44-.18Z"/>
          <path class="cls-17" d="M161.1,48.1c-.23.02-.52.03-.87.03-.04,0-.06-.02-.06-.05s.02-.05.06-.05c.36,0,.62-.05.78-.14.16-.09.26-.23.3-.42.04-.19.06-.5.06-.92v-7.26c0-.35-.06-.62-.17-.8s-.32-.27-.63-.27c-.06,0-.16,0-.32.03-.03,0-.04,0-.04-.02s.01-.04.04-.05c.28-.1.61-.23,1-.4.39-.17.69-.32.9-.44.02-.02.04-.02.06,0,.02.01.03.04.03.06v9.15c0,.42.02.73.06.92.04.19.14.33.3.42.16.09.42.14.78.14.05,0,.07.02.07.05s-.02.05-.07.05c-.35,0-.65,0-.9-.03-.07,0-.17-.01-.32-.01h-.72c-.15,0-.27,0-.34.01Z"/>
          <path class="cls-1" d="M164.98,48.1c-.23.02-.52.03-.87.03-.04,0-.06-.02-.06-.05s.02-.05.06-.05c.36,0,.62-.05.78-.14.16-.09.26-.23.3-.42.04-.19.06-.5.06-.92v-7.26c0-.35-.06-.62-.17-.8s-.32-.27-.63-.27c-.06,0-.16,0-.32.03-.03,0-.04,0-.04-.02s.01-.04.04-.05c.28-.1.61-.23,1-.4.39-.17.69-.32.9-.44.02-.02.04-.02.06,0,.02.01.03.04.03.06v9.15c0,.42.02.73.06.92.04.19.14.33.3.42.16.09.42.14.78.14.05,0,.07.02.07.05s-.02.05-.07.05c-.35,0-.65,0-.9-.03-.07,0-.17-.01-.32-.01h-.72c-.15,0-.27,0-.34.01Z"/>
          <path class="cls-27" d="M177.56,48.08s-.02.05-.07.05c-.35,0-.65,0-.9-.03-.07,0-.17-.01-.32-.01h-.73c-.15,0-.27,0-.34.01-.23.02-.52.03-.87.03-.04,0-.06-.02-.06-.05s.02-.05.06-.05c.4,0,.68-.07.82-.17.15-.1.22-.29.22-.56,0-.09-.03-.33-.09-.73l-.47-2.85c-.16-.98-.37-1.66-.62-2.02-.25-.36-.58-.54-.99-.54-.47,0-.92.24-1.37.72-.44.48-.83,1.16-1.15,2.06-.32.89-.55,1.93-.67,3.1,0,.26.05.46.11.59.06.14.17.24.33.31.16.07.39.1.69.1.05,0,.07.02.07.05s-.02.05-.07.05c-.35,0-.65,0-.9-.03-.07,0-.17-.01-.32-.01h-.72c-.15,0-.27,0-.34.01-.23.02-.52.03-.87.03-.04,0-.06-.02-.06-.05s.02-.05.06-.05c.36,0,.62-.05.78-.14.16-.09.26-.23.3-.42.04-.19.06-.5.06-.92v-3.38c0-.56-.07-.99-.2-1.27-.13-.28-.39-.42-.76-.42-.02,0-.03-.03-.03-.05s0-.04.03-.05c.65-.12,1.23-.33,1.73-.62,0,0,.02-.02.04-.02.02,0,.03,0,.04.02v2.59l-.23,3.87h.07c.16-1.47.44-2.69.84-3.65.4-.96.85-1.67,1.36-2.12.51-.45,1.03-.67,1.55-.67.45,0,.81.11,1.07.34.27.22.48.56.63,1,.15.44.29,1.05.42,1.81l.44,2.64c.08.44.15.75.21.92.06.18.17.31.34.4.16.09.42.14.79.14.05,0,.07.02.07.05Z"/>
          <path class="cls-20" d="M185.25,44.69s.03,0,.04.03c0,.02,0,.04,0,.07-.39,1.11-.93,1.96-1.63,2.55-.69.59-1.54.89-2.54.89-.68,0-1.28-.16-1.82-.48-.54-.32-.95-.75-1.25-1.29-.3-.54-.44-1.12-.44-1.75,0-.68.15-1.32.46-1.93.31-.61.74-1.1,1.31-1.47.57-.37,1.23-.56,1.98-.56.48,0,.93.06,1.35.19.42.13.77.31,1.02.54.26.23.39.5.39.81,0,.38-.13.69-.39.91-.26.22-.58.39-.95.49-.37.1-.87.2-1.49.31-.42.07-.75.13-.99.19-.53.11-.92.27-1.2.48-.27.21-.38.5-.34.88.23.63.59,1.14,1.1,1.53s1.13.59,1.88.59c.79,0,1.48-.25,2.06-.76.58-.51,1.04-1.23,1.36-2.16,0-.04.03-.06.07-.06ZM178.66,45.2c.06-.31.23-.55.51-.72.28-.18.66-.31,1.12-.41l.53-.11c.51-.1.91-.19,1.22-.29.31-.1.56-.25.77-.46.21-.21.32-.5.32-.86,0-.41-.15-.76-.44-1.04-.29-.28-.73-.42-1.33-.42-.55,0-1.05.14-1.48.41-.43.27-.76.65-1,1.15-.24.49-.36,1.06-.36,1.7,0,.36.04.72.13,1.06Z"/>
          <path class="cls-30" d="M191.27,45.02c.35.34.53.76.53,1.27,0,.59-.28,1.06-.84,1.41-.56.35-1.24.52-2.04.52-.66,0-1.28-.14-1.86-.41-.58-.27-.96-.59-1.15-.95.35-.44.6-.77.74-.99.14-.22.31-.55.52-1,.03-.05.06-.07.09-.07.02,0,.03.01.04.04,0,.02,0,.05,0,.08-.26.53-.45.9-.59,1.12.09.63.31,1.13.67,1.5.36.37.87.56,1.53.56.53.02,1.01-.1,1.44-.34.42-.25.64-.6.64-1.06,0-.36-.11-.68-.33-.96-.22-.28-.53-.5-.92-.66-.33-.13-.66-.25-.97-.36-.09-.03-.2-.07-.34-.11-.14-.05-.3-.11-.48-.19-.5-.22-.88-.48-1.14-.78-.26-.3-.39-.68-.39-1.14,0-.35.13-.66.39-.92.26-.26.58-.46.96-.6.38-.14.74-.21,1.09-.21.57,0,1.13.11,1.67.34.54.23.93.53,1.18.9-.52.53-.93,1.15-1.25,1.88,0,.03-.03.04-.06.04s-.05-.01-.06-.04c0-.02,0-.05.01-.08.15-.33.3-.61.43-.83,0-.07.01-.17.01-.3,0-.53-.19-.96-.57-1.29s-.85-.5-1.41-.5c-.46,0-.85.13-1.17.38-.32.25-.49.58-.49.97,0,.59.36,1.04,1.07,1.35.22.1.58.23,1.07.4l.5.19c.62.23,1.11.51,1.46.85Z"/>
          <path class="cls-24" d="M198.27,45.02c.35.34.53.76.53,1.27,0,.59-.28,1.06-.84,1.41-.56.35-1.24.52-2.04.52-.66,0-1.28-.14-1.86-.41-.58-.27-.96-.59-1.15-.95.35-.44.6-.77.74-.99.14-.22.31-.55.52-1,.03-.05.06-.07.09-.07.02,0,.03.01.04.04,0,.02,0,.05,0,.08-.26.53-.45.9-.59,1.12.09.63.31,1.13.67,1.5.36.37.87.56,1.53.56.53.02,1.01-.1,1.44-.34.42-.25.64-.6.64-1.06,0-.36-.11-.68-.33-.96-.22-.28-.53-.5-.92-.66-.33-.13-.66-.25-.97-.36-.09-.03-.2-.07-.34-.11-.14-.05-.3-.11-.48-.19-.5-.22-.88-.48-1.14-.78-.26-.3-.39-.68-.39-1.14,0-.35.13-.66.39-.92.26-.26.58-.46.96-.6.38-.14.74-.21,1.09-.21.57,0,1.13.11,1.67.34.54.23.93.53,1.18.9-.52.53-.93,1.15-1.25,1.88,0,.03-.03.04-.06.04s-.05-.01-.06-.04c0-.02,0-.05.01-.08.15-.33.3-.61.43-.83,0-.07.01-.17.01-.3,0-.53-.19-.96-.57-1.29s-.85-.5-1.41-.5c-.46,0-.85.13-1.17.38-.32.25-.49.58-.49.97,0,.59.36,1.04,1.07,1.35.22.1.58.23,1.07.4l.5.19c.62.23,1.11.51,1.46.85Z"/>
        </g>
        <g>
          <path class="cls-19" d="M5.96,6.56c.61-.04,1.36-.06,2.23-.06.1,0,.14.03.14.1s-.05.1-.14.1c-.84.02-1.44.11-1.8.29-.36.17-.62.55-.76,1.15-.14.59-.22,1.56-.22,2.89v11.17c0,1.34.07,2.3.22,2.89.14.59.4.97.76,1.15.36.17.96.27,1.8.29.1,0,.14.03.14.1s-.05.1-.14.1c-.88,0-1.62-.02-2.23-.06-.19-.02-.45-.03-.77-.03h-2.03c-.32,0-.58,0-.77.03-.61.04-1.36.06-2.24.06-.1,0-.14-.03-.14-.1s.05-.1.14-.1c.84-.02,1.44-.11,1.81-.29.36-.17.62-.55.76-1.15.14-.59.21-1.56.21-2.89v-11.17c0-1.34-.07-2.3-.21-2.89-.14-.59-.4-.97-.76-1.15-.36-.17-.96-.27-1.81-.29-.1,0-.14-.03-.14-.1s.05-.1.14-.1c.88,0,1.62.02,2.24.06.19.02.45.03.77.03h2.03c.32,0,.58,0,.77-.03ZM4.04,2.89c.48-.52.93-1.09,1.35-1.72.3-.44.54-.74.72-.92.17-.17.37-.26.6-.26.36,0,.54.2.54.6,0,.36-.21.78-.63,1.25-.42.47-1.02.93-1.79,1.39-.77.46-1.65.86-2.62,1.2-.04.04-.07.04-.1.01-.03-.03-.02-.06.01-.1.8-.46,1.44-.95,1.92-1.46Z"/>
          <path class="cls-26" d="M34.24,6.6c0,.07-.05.1-.14.1-1.03,0-1.83.4-2.39,1.2-.56.8-.85,1.84-.85,3.12v15.61c0,.06-.04.09-.13.09s-.13-.03-.13-.09c0-1.81-.75-3.5-2.25-5.07-1.5-1.57-3.49-3.12-5.97-4.67-2.27-1.41-4.05-2.76-5.33-4.05-1.28-1.29-1.92-2.65-1.92-4.08v12.95c0,1.41.28,2.56.84,3.45.56.89,1.36,1.34,2.39,1.36.09,0,.14.03.14.1s-.05.1-.14.1c-.8,0-1.6-.02-2.41-.06-.27-.02-.59-.03-.97-.03s-.71,0-.97.03c-.8.04-1.6.06-2.41.06-.08,0-.12-.03-.12-.1s.04-.1.12-.1c1.03-.02,1.83-.43,2.39-1.23.56-.8.84-1.83.84-3.09v-10.29c0-1.62-.07-2.78-.21-3.48-.14-.7-.4-1.15-.76-1.36-.36-.21-.96-.32-1.81-.34-.1,0-.14-.04-.14-.13s.05-.13.14-.13c.57,0,1.32.03,2.24.09l.77.03h1.98c0,1.59.52,2.99,1.58,4.23,1.05,1.23,2.52,2.47,4.41,3.71l.63.43c1.76,1.17,3.04,2.03,3.84,2.61.8.57,1.47,1.13,1.99,1.68s.89,1.1,1.1,1.68v-9.4c0-1.41-.28-2.56-.84-3.45-.56-.89-1.36-1.34-2.39-1.36-.08,0-.12-.03-.12-.1s.04-.1.12-.1c.8,0,1.6.02,2.41.06.27.02.59.03.97.03.36,0,.68,0,.95-.03.8-.04,1.6-.06,2.41-.06.1,0,.14.03.14.1Z"/>
          <path class="cls-14" d="M54.49,13.9v.03c0,.1-.04.15-.11.16-.08.01-.12-.03-.14-.13l-.69-3.04c-.15-.65-.64-1.29-1.46-1.92-.82-.63-1.82-1.15-2.98-1.55-1.17-.4-2.31-.6-3.44-.6h-2.81c-.17.69-.26,1.6-.26,2.75v5.87c1.15.38,2.35.58,3.61.6h3.18c.13,0,.2.04.2.11,0,.04-.02.07-.06.1-.04.03-.09.04-.14.04h-3.18c-1.26-.02-2.46-.22-3.61-.6v6.47c0,1.34.1,2.3.3,2.89.2.59.56.97,1.07,1.15.52.17,1.36.27,2.52.29.06,0,.11,0,.16.03.05.02.07.04.07.06,0,.08-.08.11-.23.11-1.24,0-2.28-.02-3.12-.06-.27-.02-.63-.03-1.09-.03h-1.95c-.32,0-.58,0-.77.03-.61.04-1.36.06-2.23.06-.1,0-.14-.03-.14-.1s.05-.1.14-.1c.84-.02,1.44-.11,1.8-.29.36-.17.62-.55.76-1.15.14-.59.21-1.56.21-2.89v-7.68c-1.07-.73-1.89-1.61-2.46-2.65-.57-1.04-.86-2.14-.86-3.31,0-.63.14-1.12.42-1.46.28-.34.68-.52,1.22-.52h10.63c1.72,0,2.86-.32,3.44-.97.02-.04.05-.06.09-.06s.06.02.06.06l1.86,8.28ZM37.85,11.68c.53.98,1.29,1.83,2.26,2.54v-3.29c0-1.22-.08-2.13-.23-2.74-.15-.6-.34-.98-.57-1.13-.23-.15-.53-.23-.89-.23-.46,0-.8.15-1.03.44-.23.3-.34.73-.34,1.3,0,1.09.27,2.12.8,3.11Z"/>
          <path class="cls-29" d="M62.01,24.88c-1.52-1.35-2.28-3.56-2.28-6.63v-7.22c0-1.34-.07-2.3-.22-2.89-.14-.59-.4-.97-.76-1.15-.36-.17-.96-.27-1.8-.29-.1,0-.14-.03-.14-.1s.05-.1.14-.1c.88,0,1.62.02,2.23.06.19.02.45.03.77.03h2.03c.32,0,.58,0,.77-.03.61-.04,1.36-.06,2.23-.06.1,0,.14.03.14.1s-.05.1-.14.1c-.84.02-1.44.11-1.8.29-.36.17-.62.55-.76,1.15-.14.59-.21,1.56-.21,2.89v6.42c0,1.68.13,3.18.4,4.5.27,1.32.84,2.43,1.7,3.34.87.91,2.14,1.36,3.83,1.36s2.99-.42,4.05-1.25c1.06-.83,1.83-1.92,2.31-3.28.48-1.36.72-2.83.72-4.41v-4.7c0-1.83-.34-3.33-1.03-4.5-.69-1.16-1.67-1.76-2.95-1.78-.08,0-.12-.04-.12-.13s.04-.13.12-.13c.48,0,1.46.03,2.95.09l1.17.03c.38,0,.71,0,.97-.03.8-.04,1.59-.06,2.38-.06.1,0,.14.03.14.1s-.05.1-.14.1c-1.03,0-1.83.4-2.39,1.2s-.84,1.84-.84,3.12v6.68c0,1.41-.22,2.81-.65,4.2-.43,1.38-1.19,2.56-2.29,3.54-1.1.97-2.57,1.46-4.43,1.46-2.56,0-4.6-.67-6.12-2.02Z"/>
          <path class="cls-15" d="M90.79,15.07c1.34.57,2.38,1.08,3.14,1.53.75.45,1.39,1.06,1.9,1.82.52.76.77,1.75.77,2.95,0,1.09-.35,2.05-1.05,2.89s-1.63,1.49-2.79,1.95c-1.17.46-2.44.69-3.81.69-2.01,0-3.71-.37-5.11-1.12-1.4-.74-2.11-1.84-2.11-3.29,0-.57.17-1.11.52-1.62.34-.51.81-.91,1.39-1.22.58-.31,1.22-.46,1.9-.46.59,0,1.22.11,1.88.33s1.48.54,2.45.96c.86.38,1.56.66,2.09.85.53.18,1.02.27,1.46.27.52,0,.91-.1,1.17-.32-.23-.8-.82-1.56-1.76-2.28-.95-.72-2.46-1.49-4.54-2.33-1.49-.59-2.68-1.37-3.57-2.32-.89-.96-1.33-2.11-1.33-3.47,0-.96.27-1.78.82-2.46.54-.69,1.27-1.21,2.16-1.56.9-.35,1.88-.53,2.95-.53,1.72,0,3.22.32,4.51.96,1.29.64,2.24,1.46,2.85,2.45-.97,1.18-1.66,2.12-2.06,2.81-.4.69-.78,1.51-1.15,2.46-.04.11-.1.16-.17.13s-.1-.08-.09-.16c.32-.88.7-1.7,1.12-2.46-.06-1.72-.48-3.14-1.26-4.25-.78-1.12-2.03-1.68-3.75-1.68-1.34,0-2.41.29-3.22.86-.81.57-1.22,1.39-1.22,2.44,0,1.72,1.56,3.28,4.67,4.67l1.23.52ZM94.72,22.23c0-.15-.02-.38-.06-.69-.32.21-.74.32-1.23.32s-1.05-.1-1.65-.3-1.32-.49-2.16-.87c-1.01-.42-1.81-.73-2.39-.93-.58-.2-1.14-.3-1.68-.3-.65,0-1.25.14-1.79.42-.54.28-.97.65-1.29,1.12-.31.47-.47.97-.47,1.5,0,1.34.67,2.36,2.01,3.08s2.99,1.07,4.96,1.07c3.84,0,5.76-1.47,5.76-4.41Z"/>
          <path class="cls-5" d="M119.87,19.6s.07.02.09.06c.02.04.02.1,0,.17-1.78,4.74-5.07,7.11-9.88,7.11-1.97,0-3.72-.41-5.27-1.23-1.55-.82-2.76-1.99-3.64-3.5-.88-1.51-1.32-3.26-1.32-5.24s.47-3.67,1.4-5.29c.94-1.61,2.22-2.9,3.85-3.87s3.45-1.46,5.46-1.48c1.8,0,3.26.31,4.4.93,1.14.62,1.71,1.44,1.71,2.45s-.34,1.76-1.03,2.29c-.69.54-1.51.91-2.48,1.12-.96.21-2.22.39-3.77.54-1.18.13-2.1.26-2.75.37-.65.11-1.19.31-1.63.57-.44.27-.66.64-.66,1.12v.2h12.43c.15,0,.23.04.23.11,0,.1-.08.14-.23.14h-12.69v-.43c0-.55.24-.99.72-1.3s1.06-.53,1.76-.66c.7-.12,1.67-.25,2.91-.39,1.49-.15,2.69-.32,3.61-.52.92-.19,1.7-.54,2.35-1.05.65-.51.97-1.23.97-2.16,0-.61-.25-1.15-.76-1.62-.51-.47-1.2-.83-2.09-1.09-.89-.26-1.89-.39-2.99-.39-1.38,0-2.67.34-3.87,1.03-1.2.69-2.18,1.73-2.92,3.14-.74,1.4-1.12,3.14-1.12,5.2,0,1.83.32,3.53.97,5.09.65,1.56,1.65,2.81,2.99,3.75s3.02,1.42,5.03,1.42c1.83,0,3.45-.57,4.86-1.7,1.4-1.14,2.49-2.75,3.25-4.83.04-.06.08-.09.12-.09Z"/>
          <path class="cls-9" d="M195.54,26.6c0,.07-.05.1-.14.1-.88,0-1.62-.02-2.23-.06-.19-.02-.45-.03-.77-.03l-2.01.03-.86.03c-.55.04-1.27.07-2.15.09-.1,0-.14-.03-.14-.1s.05-.1.14-.1c.84-.02,1.44-.12,1.79-.3s.6-.56.75-1.15.21-1.55.21-2.91V6.85c-.92.02-1.7.4-2.35,1.15-.65.74-1.2,1.66-1.65,2.75-.45,1.09-.99,2.61-1.62,4.56-.78,2.45-1.51,4.43-2.19,5.94-.68,1.52-1.59,2.81-2.72,3.88-1.14,1.07-2.55,1.6-4.23,1.6-.9,0-1.73-.02-2.49-.06-.21-.02-.51-.03-.89-.03h-.09c-.36,0-.68,0-.95.03-.8.04-1.63.06-2.49.06-.08,0-.11-.03-.11-.1s.04-.1.11-.1c1.03-.02,1.83-.43,2.39-1.23.56-.8.85-1.83.85-3.09l-.03-11.17c0-1.34-.07-2.3-.22-2.89-.14-.59-.4-.97-.76-1.15-.36-.17-.97-.27-1.81-.29-.1,0-.14-.03-.14-.1s.05-.1.14-.1c.88,0,1.62.02,2.23.06.19.02.45.03.77.03h1.86c0,.9.36,1.79,1.07,2.68.72.89,1.79,2,3.22,3.34,1.03.97,1.85,1.78,2.45,2.41.6.63,1.13,1.32,1.58,2.06.45.74.7,1.49.76,2.23.48-1.28.95-2.66,1.43-4.15.65-1.99,1.2-3.53,1.66-4.64.46-1.11,1.03-2.04,1.72-2.79.69-.75,1.51-1.13,2.46-1.13h2.26c.32,0,.58,0,.77-.03.61-.04,1.36-.06,2.23-.06.1,0,.14.03.14.1s-.05.1-.14.1c-.84.02-1.44.11-1.8.29-.36.17-.62.55-.76,1.15-.14.59-.22,1.56-.22,2.89v11.14c0,1.34.07,2.3.22,2.89.14.59.4.97.76,1.15.36.17.96.27,1.8.29.1,0,.14.03.14.1ZM181.47,22.32c-.02-.92-.31-1.86-.86-2.82s-1.21-1.86-1.96-2.69c-.75-.83-1.74-1.83-2.97-2.99-1.26-1.22-2.19-2.2-2.79-2.92-.6-.73-.9-1.37-.9-1.92l-.03,12.32c0,1.47.29,2.7.86,3.7.57.99,1.42,1.49,2.55,1.49,2.5,0,4.54-1.38,6.1-4.15Z"/>
          <path class="cls-8" d="M203.63,24.88c-1.52-1.35-2.28-3.56-2.28-6.63v-7.22c0-1.34-.07-2.3-.21-2.89-.14-.59-.4-.97-.76-1.15-.36-.17-.97-.27-1.81-.29-.1,0-.14-.03-.14-.1s.05-.1.14-.1c.88,0,1.62.02,2.24.06.19.02.45.03.77.03h2.03c.32,0,.58,0,.77-.03.61-.04,1.36-.06,2.23-.06.1,0,.14.03.14.1s-.05.1-.14.1c-.84.02-1.44.11-1.8.29-.36.17-.62.55-.76,1.15-.14.59-.22,1.56-.22,2.89v6.42c0,1.68.13,3.18.4,4.5.27,1.32.84,2.43,1.71,3.34.87.91,2.14,1.36,3.82,1.36s2.99-.42,4.05-1.25c1.06-.83,1.83-1.92,2.31-3.28.48-1.36.72-2.83.72-4.41v-4.7c0-1.83-.34-3.33-1.03-4.5-.69-1.16-1.67-1.76-2.95-1.78-.08,0-.11-.04-.11-.13s.04-.13.11-.13c.48,0,1.46.03,2.95.09l1.18.03c.38,0,.71,0,.97-.03.8-.04,1.59-.06,2.38-.06.1,0,.14.03.14.1s-.05.1-.14.1c-1.03,0-1.83.4-2.39,1.2-.56.8-.85,1.84-.85,3.12v6.68c0,1.41-.21,2.81-.64,4.2-.43,1.38-1.19,2.56-2.29,3.54-1.1.97-2.57,1.46-4.43,1.46-2.56,0-4.6-.67-6.12-2.02ZM209.32,2.89c.48-.52.93-1.09,1.35-1.72.31-.44.54-.74.72-.92.17-.17.37-.26.6-.26.36,0,.54.2.54.6,0,.36-.21.78-.63,1.25-.42.47-1.02.93-1.79,1.39-.77.46-1.65.86-2.62,1.2-.04.04-.07.04-.1.01-.03-.03-.02-.06.01-.1.8-.46,1.44-.95,1.92-1.46Z"/>
          <path class="cls-3" d="M232.41,15.07c1.34.57,2.38,1.08,3.14,1.53.75.45,1.39,1.06,1.9,1.82.52.76.77,1.75.77,2.95,0,1.09-.35,2.05-1.05,2.89s-1.63,1.49-2.79,1.95c-1.17.46-2.44.69-3.81.69-2.01,0-3.71-.37-5.11-1.12-1.4-.74-2.11-1.84-2.11-3.29,0-.57.17-1.11.52-1.62.34-.51.81-.91,1.39-1.22.58-.31,1.22-.46,1.9-.46.59,0,1.22.11,1.88.33s1.48.54,2.45.96c.86.38,1.56.66,2.09.85.53.18,1.02.27,1.46.27.52,0,.91-.1,1.17-.32-.23-.8-.82-1.56-1.76-2.28-.95-.72-2.46-1.49-4.54-2.33-1.49-.59-2.68-1.37-3.57-2.32-.89-.96-1.33-2.11-1.33-3.47,0-.96.27-1.78.82-2.46.54-.69,1.27-1.21,2.16-1.56.9-.35,1.88-.53,2.95-.53,1.72,0,3.22.32,4.51.96,1.29.64,2.24,1.46,2.85,2.45-.97,1.18-1.66,2.12-2.06,2.81-.4.69-.78,1.51-1.15,2.46-.04.11-.1.16-.17.13s-.1-.08-.09-.16c.32-.88.7-1.7,1.12-2.46-.06-1.72-.48-3.14-1.26-4.25-.78-1.12-2.03-1.68-3.75-1.68-1.34,0-2.41.29-3.22.86-.81.57-1.22,1.39-1.22,2.44,0,1.72,1.56,3.28,4.67,4.67l1.23.52ZM236.34,22.23c0-.15-.02-.38-.06-.69-.32.21-.74.32-1.23.32s-1.05-.1-1.65-.3-1.32-.49-2.16-.87c-1.01-.42-1.81-.73-2.39-.93-.58-.2-1.14-.3-1.68-.3-.65,0-1.25.14-1.79.42-.54.28-.97.65-1.29,1.12-.31.47-.47.97-.47,1.5,0,1.34.67,2.36,2.01,3.08s2.99,1.07,4.96,1.07c3.84,0,5.76-1.47,5.76-4.41Z"/>
          <path class="cls-18" d="M261.49,19.6s.07.02.09.06c.02.04.02.1,0,.17-1.78,4.74-5.07,7.11-9.88,7.11-1.97,0-3.73-.41-5.27-1.23-1.55-.82-2.76-1.99-3.64-3.5-.88-1.51-1.32-3.26-1.32-5.24s.47-3.67,1.4-5.29c.93-1.61,2.22-2.9,3.85-3.87,1.63-.96,3.45-1.46,5.46-1.48,1.8,0,3.26.31,4.4.93,1.14.62,1.7,1.44,1.7,2.45s-.34,1.76-1.03,2.29c-.69.54-1.51.91-2.48,1.12-.96.21-2.22.39-3.77.54-1.18.13-2.1.26-2.75.37-.65.11-1.19.31-1.63.57-.44.27-.66.64-.66,1.12v.2h12.43c.15,0,.23.04.23.11,0,.1-.08.14-.23.14h-12.69v-.43c0-.55.24-.99.72-1.3.48-.32,1.06-.53,1.76-.66.7-.12,1.67-.25,2.91-.39,1.49-.15,2.69-.32,3.61-.52.92-.19,1.7-.54,2.35-1.05.65-.51.97-1.23.97-2.16,0-.61-.25-1.15-.76-1.62-.51-.47-1.2-.83-2.09-1.09-.89-.26-1.89-.39-2.99-.39-1.37,0-2.66.34-3.87,1.03-1.2.69-2.18,1.73-2.92,3.14-.75,1.4-1.12,3.14-1.12,5.2,0,1.83.32,3.53.97,5.09.65,1.56,1.65,2.81,2.99,3.75,1.35.95,3.02,1.42,5.03,1.42,1.83,0,3.45-.57,4.86-1.7,1.4-1.14,2.49-2.75,3.25-4.83.04-.06.08-.09.11-.09Z"/>
        </g>
      </g>
      <path class="cls-11" d="M149.2,26.22c-.38-.03-.75-.18-1.07-.37-.49-.3-.9-.75-1.31-1.14-.98.81-2.16,1.38-3.43,1.55-3.24.44-6.37-.93-7.63-4.05-.19-.48-.24-.91-.58-1.32-.07-.08-.48-.51-.54-.55-.16-.09-.48.05-.67.07-2.23.3-3.33-1.52-3.79-3.42,2.02-.28,4.38.31,4.59,2.68l-1.13-.76c-.25-.12-.49-.25-.74-.35-.16-.06-.37-.14-.54-.16.71.37,1.38.8,2,1.31.26.21.51.49.76.68.04.03.05.08.12.06-.07-.63-.15-1.25-.12-1.89.02-.35.13-.75.12-1.09,0-.27-.24-1.24-.37-1.46-.1-.17-.33-.17-.5-.24-.51-.21-.98-.42-1.39-.79-1.49-1.33-1.27-3.85-.62-5.55,1.23.56,2.62,1.56,3.2,2.82.49,1.05.39,2.15-.09,3.18-.05,0-.06-.06-.08-.1-.49-1.07-.73-1.85-1.55-2.77-.02-.02-.1-.12-.12-.08.47.75.85,1.55,1.17,2.37.18.47.32,1.11.53,1.54.02.05.04.11.1.12,1.03-3.29,4.4-5.9,7.95-5.37l-1.33.17-.85.22c-.07.1.76,1.66.92,1.86.89-.5,1.72-1.21,2.01-2.23.43-1.48.02-3.21-1.82-3.07-1.51.11-1.74,1.69-1.38,2.88-.7.12-1.37.39-1.99.72-.08.04-.46.3-.51.25-.41-1.89-.05-4,1.79-4.97,2.37-1.24,6.07-.44,6.5,2.58.37,2.62-1.64,4.17-3.62,5.37-.01.07.6.95.7,1.1,1.03,1.52,2.14,2.99,3.28,4.44.11.2-.15.62-.26.82-.27.48-.69.99-1.12,1.34-.08.06-.42.33-.48.3-.08-.04-.38-.41-.47-.51-1.14-1.33-2.28-2.88-3.27-4.33-.28-.41-.56-.96-.85-1.33-.03-.03-.06-.09-.11-.08-2.52,2.26-1.65,7.22,2.1,7.48,2.31.16,4.13-1.18,4.93-3.29.32-.84.83-2.94-.25-3.38-.31-.12-.64-.08-.92-.21v-1.19h5.06v1.25c-.77.08-1.25.12-1.51.93-.23.73-.31,1.57-.55,2.34-.18.6-.44,1.16-.67,1.74,1,1.2,2.25,2.43,3.9,2.55v1.32h-3.49ZM139.91,12.16c-2.73,1.32-4.38,4.56-3.86,7.55l.17-.74c.5-1.79,1.89-3.03,3.39-4.01l-.76-1.78c.25-.43.7-.69,1.05-1.03Z"/>
    </g>
  </g>
</svg>